<?xml version="1.0" encoding="utf-8"?>
<!-- Generator: Adobe Illustrator 26.0.3, SVG Export Plug-In . SVG Version: 6.00 Build 0)  -->
<svg version="1.1" id="Layer_1" xmlns="http://www.w3.org/2000/svg" xmlns:xlink="http://www.w3.org/1999/xlink" x="0px" y="0px"
	 viewBox="0 0 288 288" style="enable-background:new 0 0 288 288;" xml:space="preserve">
<style type="text/css">
	.st0{fill-rule:evenodd;clip-rule:evenodd;fill:#FFFFFF;}
	.st1{fill:#F58F8F;}
	.st2{fill-rule:evenodd;clip-rule:evenodd;fill:#83CFCB;}
	.st3{fill-rule:evenodd;clip-rule:evenodd;fill:#F58F8F;}
	.st4{fill-rule:evenodd;clip-rule:evenodd;fill:#D56F6F;}
	.st5{fill-rule:evenodd;clip-rule:evenodd;fill:#FBC09A;}
	.st6{fill-rule:evenodd;clip-rule:evenodd;fill:#E1996D;}
	.st7{fill:#D56F6F;}
</style>
<g>
	<polygon class="st0" points="-877.81,-830.24 1122.19,-830.24 1122.19,1169.76 -877.81,1169.76 -877.81,-830.24 	"/>
	<path class="st1" d="M-436.5,111.87c-15.37-2.77-26.52-7.02-33.44-12.66c-6.92-5.73-10.35-12.09-10.28-19.01
		c0.06-7,2.95-14.13,8.68-21.29c5.72-7.25,13.29-13.7,22.7-19.25c9.41-5.64,20.18-9.97,32.3-12.98c12.12-3.02,24.68-3.95,37.7-2.82
		c9.68,0.86,16.64,3.75,20.88,8.68c4.24,4.94,7.24,10.56,9.01,17.03c1.76,6.47,3.11,12.87,4.04,19.35
		c0.93,6.49,3.09,11.87,6.49,16.07c0.34,0.66,0.28,1.66-0.2,3c-0.48,1.34-1.21,2.52-2.2,3.53c-0.98,1.02-2.31,1.45-3.98,1.31
		c-1.67-0.14-3.52-1.36-5.55-3.67c-1.36-1.98-2.26-6.21-2.69-12.62c-0.43-6.49-1.36-13.14-2.8-19.87
		c-1.43-6.81-4.02-12.77-7.77-17.8c-3.74-5.11-9.78-7.43-18.1-6.98c-11.65,0.84-21.62,2.91-29.9,6.2
		c-8.28,3.29-15.22,7.23-20.82,11.81c-5.6,4.58-9.78,9.14-12.54,13.69c-2.76,4.54-4.46,8.31-5.08,11.32
		c-0.31,1.34-0.63,2.59-0.94,3.76c-0.32,1.17-0.21,2.42,0.3,3.75c0.52,1.32,1.71,2.72,3.56,4.2c1.86,1.47,4.79,2.84,8.81,4.12
		c2.68,0.96,6.95,2.23,12.8,3.81c5.86,1.58,12.23,4.06,19.11,7.46c6.88,3.4,14.03,7.7,21.44,12.92
		c7.41,5.22,14.09,11.78,20.04,19.69c5.95,7.91,10.59,17.42,13.93,28.53c3.33,11.11,4.61,24.18,3.84,39.19
		c-1.08,17.01-5.17,32.91-12.28,47.68c-7.11,14.77-16.5,27.49-28.17,38.17c-11.67,10.67-25.29,18.88-40.87,24.61
		c-15.58,5.73-32.05,7.73-49.4,5.99c-15.02-1.44-27.9-4.58-38.63-9.41c-10.74-4.84-19.49-10.96-26.27-18.35
		c-6.78-7.4-11.65-15.82-14.63-25.28c-2.97-9.45-4.21-19.68-3.71-30.69c0.5-11.34,2.75-22.45,6.75-33.35c4-10.89,9.6-20.56,16.81-29
		c7.2-8.44,16.18-15.32,26.93-20.65c10.75-5.33,23.29-7.93,37.62-7.81c13.33,0.13,23.95,2.56,31.85,7.27
		c7.9,4.71,13.9,10.29,18,16.73c4.1,6.44,6.78,12.81,8.04,19.12c1.26,6.31,1.91,10.97,1.96,13.97c1.67,0.31,2.53,2.13,2.58,5.46
		c-0.3,2.34-0.84,4.85-1.64,7.52c-0.79,2.68-1.86,4.03-3.19,4.05c-1.67,0.03-3.1-1.37-4.31-4.18c-1.21-2.81-1.66-5.22-1.36-7.23
		c-0.02-1,0.3-2,0.95-3.01c0.65-1.01,1.14-1.85,1.46-2.52c-0.39-3.66-1.54-8.14-3.45-13.45c-1.91-5.3-4.82-10.34-8.73-15.12
		c-3.9-4.77-9.05-8.86-15.43-12.26c-6.38-3.4-14.24-5.04-23.57-4.9c-9.66,0.15-18.21,2.53-25.64,7.14
		c-7.43,4.61-13.67,10.62-18.73,18.03c-5.05,7.41-8.84,15.88-11.37,25.42c-2.52,9.54-3.54,19.13-3.07,28.79
		c0.12,7.66,1.23,15.31,3.34,22.94c2.11,7.63,5.3,14.67,9.57,21.1c4.26,6.44,9.76,12.02,16.5,16.75c6.74,4.73,14.78,8.02,24.14,9.88
		c13.03,2.47,25.43,1.12,37.18-4.06c11.75-5.17,22.14-12.83,31.15-22.96c9.01-10.13,16.33-22.16,21.95-36.07
		c5.62-13.92,8.65-28.38,9.1-43.38c0.45-14-0.98-26.15-4.3-36.43c-3.32-10.28-7.87-18.96-13.64-26.21
		c-5.77-7.24-12.44-12.81-20-16.61C-421.19,116.14-428.81,113.42-436.5,111.87L-436.5,111.87z M-195.69,135.57
		c3.67,0.61,6.27,1.82,7.8,3.63c1.53,1.81,2.14,3.88,1.84,6.22c-0.29,2.67-0.95,3.52-1.96,2.53c-1.01-0.98-3.02-1.62-6.03-1.91
		c-2.67-0.29-3.99,0.4-3.97,2.06c0.02,1.67-0.46,3.01-1.44,4.02c-1.31,1.35-2.35,4.62-3.1,9.79c-0.75,5.18-1.74,11.36-2.97,18.54
		c-1.23,7.18-2.94,14.79-5.16,22.82c-2.21,8.03-5.19,15.41-8.92,22.13c-3.73,6.72-8.64,12.38-14.74,16.97
		c-6.1,4.59-13.64,6.79-22.64,6.59c-3.67,0.06-8.02-1.71-13.08-5.3c-5.05-3.59-8.31-9.87-9.78-18.85c-0.38-2.99-0.59-5.57-0.62-7.74
		c-0.03-2.17-0.06-4.08-0.09-5.75c-0.03-1.67,0.12-3.34,0.43-5.01c0.02,1.33-1.44,4.27-4.37,8.81c-2.93,4.54-6.36,9.34-10.28,14.4
		c-3.92,5.06-7.94,9.53-12.05,13.43c-4.11,3.9-7.33,5.86-9.66,5.9c-3.66,0.05-7.43-1.14-11.3-3.58c-3.87-2.44-6.18-6.16-6.92-11.14
		c-0.37-2.33,0.15-6.84,1.55-13.52c1.4-6.69,3.04-14.04,4.92-22.07c1.88-8.03,3.43-15.97,4.64-23.82
		c1.22-7.85,1.62-14.11,1.22-18.77c-0.39-3.66-1.34-6.06-2.86-7.21c-1.52-1.14-2.45-2.54-2.81-4.21c-0.04-3,1.93-4.53,5.93-4.59
		c2-0.03,4.17,0.19,6.51,0.65c2.34,0.46,4.6,1.51,6.8,3.15c2.19,1.63,4.23,4.19,6.11,7.66c1.89,3.47,3.21,8.2,3.96,14.19
		c0.74,4.66,0.5,11.16-0.71,19.51c-1.21,8.35-2.67,16.62-4.38,24.81c-1.71,8.19-3.43,15.3-5.18,21.33
		c-1.74,6.02-2.61,9.04-2.61,9.04c1.67,0.31,4.79-2.99,9.35-9.89c4.56-6.9,9.19-15.22,13.87-24.96c4.69-9.73,8.87-19.71,12.55-29.93
		c3.68-10.22,5.47-18.49,5.37-24.82c-0.02-1.33-0.7-2.49-2.05-3.47c-1.35-0.98-2.19-1.8-2.54-2.46c-0.03-2,1.79-3.03,5.45-3.08
		c1.33-0.02,3.25,0.29,5.76,0.91c2.51,0.63,5.02,1.67,7.55,3.13c2.52,1.46,4.72,3.43,6.59,5.9c1.87,2.47,3.16,5.37,3.88,8.69
		c0.38,2.99,0.11,7.25-0.81,12.76s-1.83,11.44-2.73,17.79c-0.91,6.35-1.72,12.86-2.46,19.53c-0.73,6.68-0.73,12.68,0.02,18
		c0.42,5.99,2.13,8.97,5.13,8.92c5.33-0.08,9.77-3.98,13.32-11.7c4.17-10.73,7.18-20.94,9.04-30.63c1.85-9.69,3.47-18.3,4.86-25.82
		c1.39-7.52,2.96-13.96,4.71-19.32c1.75-5.36,4.44-9.23,8.07-11.62c1.32-0.69,3.06-1.38,5.22-2.08
		C-199.27,135.46-197.36,135.27-195.69,135.57L-195.69,135.57z M-164.74,199.1c8.98-1.14,16.01-4.74,21.08-10.82
		c5.07-6.07,8.48-12.38,10.21-18.9c1.74-6.53,1.82-12.19,0.24-17c-1.57-4.81-4.35-6.52-8.32-5.13c-3.31,1.38-7.18,4.44-11.61,9.17
		c-4.43,4.73-8.51,10.46-12.24,17.18c-3.73,6.72-6.78,14.27-9.16,22.63c-2.37,8.37-3.17,16.71-2.37,25.03
		c0.41,4.99,2.13,8.71,5.17,11.17c3.04,2.45,6.72,3.81,11.06,4.08c4.34,0.27,8.74-0.38,13.22-1.95c4.48-1.57,8.36-4.04,11.64-7.42
		c4.92-5.07,8.93-9.96,12.03-14.68c3.09-4.71,5.94-9.67,8.53-14.88c2.59-5.2,5.17-10.66,7.75-16.36c2.58-5.7,5.65-11.92,9.22-18.64
		c1.96-2.7,3.94-3.81,5.95-3.34c2.01,0.47,1.88,2.89-0.39,7.25c-0.97,2.01-2.41,5.79-4.33,11.31c-1.91,5.53-4.49,11.82-7.71,18.86
		c-3.23,7.05-7.2,14.19-11.93,21.43c-4.72,7.24-10.21,13.57-16.46,19c-4.61,4.07-10.72,7.33-18.35,9.77
		c-7.63,2.45-17.13,2.26-28.5-0.57c-8.7-2.2-14.93-6.61-18.7-13.22c-3.76-6.61-5.63-14.08-5.59-22.41
		c0.04-8.33,1.58-16.94,4.61-25.81c3.03-8.88,7-16.69,11.9-23.42c2.94-3.71,6.39-7.34,10.33-10.9c3.94-3.56,8.15-6.54,12.61-8.94
		c4.46-2.4,9.19-3.89,14.18-4.46c4.99-0.57,10.17,0.26,15.54,2.51c6.71,2.9,10.45,7.76,11.22,14.58c0.77,6.82-0.46,13.92-3.68,21.3
		c-3.22,7.38-7.78,14.12-13.69,20.2c-5.91,6.09-12.35,9.85-19.33,11.29c-1.99,0.36-3.5,0.13-4.51-0.68
		c-1.01-0.82-1.53-1.73-1.54-2.73c-0.02-1,0.14-2,0.45-3.01C-165.9,199.61-165.41,199.11-164.74,199.1L-164.74,199.1z
		 M-84.77,197.89c8.98-1.14,16.01-4.74,21.08-10.82c5.07-6.07,8.48-12.38,10.21-18.9c1.74-6.53,1.82-12.19,0.24-17
		c-1.57-4.81-4.35-6.52-8.32-5.12c-3.31,1.38-7.18,4.44-11.61,9.17c-4.43,4.73-8.51,10.46-12.24,17.18
		c-3.73,6.72-6.78,14.27-9.16,22.63c-2.37,8.37-3.16,16.71-2.37,25.03c0.41,4.99,2.13,8.71,5.17,11.17
		c3.04,2.45,6.72,3.81,11.06,4.08c4.34,0.27,8.74-0.38,13.22-1.95c4.48-1.57,8.36-4.04,11.64-7.42c4.92-5.07,8.93-9.96,12.03-14.68
		c3.09-4.71,5.94-9.67,8.53-14.88c2.59-5.21,5.17-10.66,7.75-16.36c2.58-5.7,5.65-11.92,9.22-18.64c1.96-2.7,3.94-3.81,5.95-3.34
		c2.01,0.47,1.88,2.89-0.39,7.25c-0.97,2.01-2.41,5.79-4.33,11.31c-1.91,5.53-4.49,11.82-7.71,18.86
		c-3.23,7.05-7.2,14.19-11.93,21.42c-4.72,7.24-10.21,13.57-16.46,19c-4.61,4.07-10.72,7.33-18.35,9.77
		c-7.63,2.45-17.13,2.26-28.5-0.57c-8.7-2.2-14.93-6.61-18.7-13.22c-3.76-6.61-5.63-14.08-5.59-22.41
		c0.04-8.33,1.58-16.94,4.61-25.81c3.03-8.88,7-16.69,11.9-23.42c2.94-3.71,6.39-7.34,10.33-10.9c3.94-3.56,8.15-6.54,12.61-8.94
		c4.46-2.4,9.19-3.89,14.18-4.46c4.99-0.57,10.17,0.26,15.54,2.51c6.71,2.9,10.45,7.76,11.22,14.58c0.77,6.82-0.46,13.92-3.68,21.3
		c-3.22,7.38-7.78,14.12-13.69,20.2c-5.91,6.09-12.35,9.85-19.33,11.29c-1.99,0.36-3.5,0.13-4.51-0.68
		c-1.01-0.82-1.53-1.73-1.54-2.73c-0.02-1,0.14-2,0.45-3.01C-85.93,198.41-85.44,197.9-84.77,197.89L-84.77,197.89z M28.07,155.7
		c-0.35-0.99-0.03-1.75,0.96-2.26c0.99-0.51,1.99-0.78,2.99-0.8c2-0.03,3.18,1.12,3.55,3.45c-0.31,1.34-1.02,4.43-2.11,9.28
		c-1.09,4.85-2.76,10.54-4.99,17.07c-2.23,6.53-4.88,13.49-7.93,20.87c-3.06,7.38-6.54,14.1-10.45,20.16
		c-3.91,6.06-8.16,11.12-12.77,15.19c-4.61,4.07-9.41,6.14-14.41,6.22c-6.66,0.1-11.87-2.32-15.6-7.26
		c-3.74-4.94-4.85-11.92-3.31-20.94c1.23-7.02,2.76-15.95,4.59-26.81c1.84-10.86,3.84-21.89,6-33.08
		c2.16-11.2,4.09-21.89,5.77-32.08c1.68-10.19,2.97-18.29,3.88-24.3c-3.34-0.28-7.92-0.21-13.75,0.21
		c-5.83,0.42-11.57,0.76-17.23,1.01c-5.66,0.25-10.83,0.41-15.49,0.48c-4.67,0.07-7.34-0.39-8.02-1.38
		c-1.01-0.65-1.02-1.49-0.04-2.5c0.98-1.02,1.81-1.53,2.48-1.54c4.67,0.26,9.67,0.27,15,0.03c5.33-0.25,10.49-0.58,15.48-0.98
		c4.99-0.41,9.57-0.89,13.72-1.46c4.16-0.56,7.4-0.86,9.73-0.9c0.3-2.34,0.76-5.26,1.37-8.77c0.61-3.51,1.23-6.85,1.85-10.03
		c0.62-3.18,0.99-5.93,1.12-8.26c0.13-2.34-0.13-3.5-0.8-3.49c-4.69-1.26-8.84-0.61-12.47,1.94c-3.63,2.55-6.15,6.34-7.58,11.36
		c-1.43,5.02-1.5,10.85-0.24,17.5c1.27,6.65,4.61,13.1,10.04,19.35c0.68,0.99,2.37,2.3,5.06,3.92c2.69,1.62,4.37,2.77,5.05,3.42
		c1.35,0.98,2.28,2.21,2.81,3.71c0.52,1.49-0.23,1.59-2.24,0.28c-4.03-1.94-6.8-3.31-8.31-4.12c-1.51-0.81-2.78-2.04-3.81-3.69
		c-9.47-9.19-15.1-17.69-16.88-25.49c-1.78-7.81-1.14-14.48,1.95-20.02c3.08-5.55,7.68-9.95,13.8-13.21
		c6.12-3.26,12.17-4.93,18.17-5.02c6-0.09,11.19,1.41,15.56,4.51c4.38,3.1,6.29,8.32,5.73,15.66c0.71,2.66,0.75,5.65,0.14,9
		c-0.62,3.34-1.4,6.85-2.34,10.53c1.67-0.03,5.41-0.33,11.24-0.92c5.82-0.59,12.49-0.85,19.98-0.8c7.5,0.05,15.25,0.35,23.26,0.9
		c8.01,0.55,15.28,1.94,21.81,4.17c6.53,2.23,11.58,5.32,15.14,9.27c3.56,3.95,4.72,9.26,3.49,15.94c-0.97,2.02-2.27,4.12-3.91,6.31
		c-1.63,2.19-3.11,3.63-4.43,4.32c-1.32,0.69-2.16,0.28-2.52-1.21c-0.36-1.5,0.42-5.09,2.34-10.78c2.57-6.7,0.49-11.67-6.23-14.9
		c-6.71-3.23-15.08-5.35-25.09-6.37c-10.01-1.01-20.43-1.19-31.25-0.53c-10.82,0.66-18.89,1.53-24.21,2.61
		c-1.86,9.36-4.27,20.39-7.25,33.1c-2.97,12.71-5.95,25.5-8.92,38.38c-2.97,12.88-5.54,24.75-7.71,35.61
		c-2.17,10.86-3.21,18.96-3.13,24.29c-0.65,1.34-0.8,2.01-0.47,2.01c0.33,0,1.17-0.02,2.5-0.04c3-0.05,6.29-2.84,9.87-8.4
		c3.58-5.55,7.23-12.27,10.95-20.16c3.71-7.89,7.17-16.35,10.36-25.4C23.13,170.77,25.84,162.73,28.07,155.7L28.07,155.7z
		 M128.28,171.19c-0.68-0.66-1.44-1.56-2.29-2.71c-0.85-1.15-1.62-2.39-2.3-3.71c-2.42-5.63-2.61-13.04-0.59-22.24
		c2.03-9.19,5.96-19.17,11.8-29.92c5.84-10.75,13.42-21.53,22.76-32.34c9.34-10.81,20.1-20.72,32.3-29.73
		c12.2-9.02,25.5-16.38,39.91-22.09c14.41-5.72,29.78-8.7,46.11-8.94c12.66-0.19,23.36,2.31,32.11,7.52
		c8.74,5.2,14.35,12.36,16.82,21.49c2.47,9.13,1.22,19.9-3.76,32.3c-4.98,12.4-14.86,25.39-29.66,38.94
		c-3.61,3.72-6.98,6.85-10.11,9.4c-3.13,2.55-5.52,4.5-7.16,5.86c10.34,0.51,18.14,3.56,23.38,9.15c5.25,5.59,8.36,12.71,9.32,21.36
		c0.96,8.65-0.06,18.17-3.07,28.54c-3.01,10.37-7.6,20.61-13.78,30.7c-5.53,8.75-12.57,17.6-21.1,26.56
		c-8.53,8.96-18.24,17.19-29.12,24.68c-10.89,7.5-22.62,13.84-35.21,19.03c-12.58,5.19-25.54,8.05-38.86,8.58
		c-8.66,0.47-16.27-1.59-22.84-6.15c-6.57-4.57-11.24-10.74-14.03-18.53c-2.78-7.79-3-16.54-0.64-26.24
		c2.35-9.7,8.28-19.62,17.8-29.76c0.54-8.67,1.89-17.94,4.08-27.8c2.18-9.87,4.56-18.15,7.12-24.85c1.9-6.36,4.13-13.48,6.68-21.35
		c2.55-7.87,4.85-15.49,6.91-22.85c2.05-7.36,3.71-13.97,4.95-19.82c1.25-5.85,1.69-9.77,1.32-11.77c-0.38-2.99,1.01-4.85,4.17-5.56
		c3.15-0.71,6.57-0.35,10.26,1.1c3.69,1.44,7.14,4.06,10.37,7.84c3.22,3.78,4.71,8.68,4.47,14.68c0.02,1.33-0.69,4.34-2.11,9.03
		c-1.43,4.69-3.18,10.21-5.25,16.58c-2.07,6.36-4.38,13.31-6.93,20.85c-2.55,7.54-4.78,14.82-6.67,21.85
		c-0.96,2.35-1.84,4.94-2.63,7.79c-0.79,2.84-1.66,5.94-2.61,9.29c1.66-0.69,3.23-1.46,4.71-2.32c1.49-0.85,3.23-1.63,5.22-2.33
		c3.97-2.06,6.39-1.85,7.26,0.64c0.87,2.49-1.17,5.1-6.13,7.84c-2.64,1.7-5.12,3.16-7.43,4.36c-2.31,1.2-4.62,2.65-6.93,4.35
		c-2.52,9.7-4.3,18.56-5.35,26.57c-1.04,8.01-0.39,12.67,1.96,13.97c2.69,1.63,3.71,3.11,3.07,4.45c-0.65,1.34-2.3,2.2-4.96,2.57
		c-2.66,0.37-5.92,0.09-9.76-0.85c-3.85-0.94-7.63-3.22-11.35-6.83c-1.68-0.97-2.79-2.62-3.32-4.95c-0.53-2.33-1.16-4.98-1.87-7.97
		c-6.54,8.43-10.01,16.07-10.4,22.9c-0.4,6.84,1.02,12.57,4.26,17.18c3.24,4.62,7.54,8.22,12.91,10.8
		c5.37,2.59,10.72,3.84,16.05,3.76c8.66-0.13,17.71-2.52,27.14-7.16c9.43-4.64,18.42-10.52,26.98-17.65
		c8.56-7.13,16.44-14.83,23.65-23.1c7.21-8.27,13.09-16.11,17.64-23.51c3.57-6.39,6.88-13.27,9.94-20.64
		c3.06-7.38,5.28-14.49,6.68-21.35c1.39-6.85,1.72-13.11,0.97-18.76c-0.75-5.65-2.98-10.12-6.7-13.4
		c-3.37-2.62-7.38-3.55-12.04-2.82c-4.66,0.74-9.46,2.39-14.42,4.97c-4.96,2.57-9.67,5.4-14.12,8.46c-4.45,3.07-8,5.45-10.64,7.16
		c-1.98,1.36-3.55,1.97-4.72,1.82c-1.17-0.15-1.93-0.72-2.28-1.71c-0.35-0.99-0.28-2.16,0.2-3.5c0.48-1.34,1.38-2.69,2.69-4.04
		c1.98-1.36,5.03-3.58,9.15-6.64c4.12-3.06,8.82-6.55,14.09-10.46c5.27-3.91,10.79-8.33,16.55-13.25
		c5.76-4.92,11.09-10.25,16.01-15.99c9.84-10.48,16.18-21.07,19.02-31.78c2.84-10.71,2.95-20.04,0.33-28
		c-2.62-7.96-7.71-13.88-15.27-17.77c-7.56-3.88-16.98-4.41-28.27-1.57c-15.93,4.24-31.82,11.89-47.65,22.96
		c-15.83,11.07-29.64,23.27-41.44,36.62c-11.8,13.34-20.76,26.64-26.89,39.9c-6.13,13.26-7.47,24.19-4.01,32.81
		c0.33,0,0.5,0.16,0.51,0.49c2.33-0.37,4.51,0.6,6.54,2.9c1.02,1.65,1.97,3.8,2.85,6.46c0.87,2.65,0.65,4.32-0.67,5.01
		c-1.32,0.69-3.24,0.38-5.76-0.91c-2.52-1.3-4.29-2.6-5.31-3.92c-0.01-0.67-0.1-1.16-0.27-1.49
		C128.38,171.85,128.29,171.52,128.28,171.19L128.28,171.19z M430.42,150.64c1.63-2.69,3.53-3.55,5.71-2.59
		c2.18,0.97,2.46,3.3,0.86,6.98c-5.82,11.75-11.55,24.17-17.19,37.25c-5.63,13.08-12.05,24.01-19.25,32.78
		c-4.91,5.74-10.1,9.57-15.57,11.48c-5.47,1.92-10.3,2.24-14.48,0.97c-4.19-1.27-7.39-3.97-9.62-8.1
		c-2.23-4.13-2.55-9.21-0.98-15.23c-0.97,2.01-2.35,4.2-4.15,6.56c-1.8,2.36-3.51,4.89-5.13,7.58c-2.61,3.71-6.07,6.51-10.37,8.41
		c-4.3,1.9-8.54,2.71-12.71,2.44c-4.17-0.27-7.94-1.55-11.31-3.83c-3.37-2.28-5.59-5.92-6.66-10.9c-1.06-4.32-1.48-9.64-1.24-15.98
		c0.24-6.34,1.05-13.01,2.45-20.03c1.39-7.02,3.29-13.96,5.68-20.83c2.4-6.87,5.22-13.16,8.47-18.88
		c3.25-5.71,7.6-10.03,13.05-12.94c5.45-2.91,10.92-4.83,16.41-5.75c5.49-0.91,10.73-1.08,15.74-0.49c5.01,0.59,8.86,1.7,11.55,3.32
		c6.05,3.57,9.09,6.28,9.12,8.11c0.03,1.83-1.13,2.27-3.48,1.3c-3.69-1.61-7.8-3.13-12.32-4.56c-4.52-1.43-10.26-0.76-17.22,2.01
		c-6.29,2.43-11.46,8.42-15.48,17.98c-4.02,9.56-6.79,19.52-8.3,29.87c-1.51,10.35-1.79,19.52-0.84,27.51
		c0.95,7.98,3.26,11.78,6.92,11.39c1.66-0.36,4.69-4.07,9.08-11.13c4.39-7.06,8.61-14.96,12.64-23.68
		c4.03-8.73,7.33-16.77,9.88-24.14c2.56-7.37,2.99-11.38,1.32-12.02c-1.34-0.31-0.35-1.24,2.96-2.8c3.31-1.55,7.04-2.85,11.19-3.92
		c4.15-1.06,7.98-1.2,11.49-0.42c3.51,0.78,4.96,3.18,4.36,7.18c-0.92,5.01-2.58,11.45-4.96,19.32c-2.38,7.87-4.6,15.56-6.65,23.1
		c-2.05,7.53-3.54,14.13-4.45,19.81c-0.91,5.68-0.37,8.5,1.63,8.47c1.66-0.02,4.21-2.56,7.63-7.61c3.42-5.05,7.08-11.44,10.96-19.16
		c3.88-7.72,7.84-15.95,11.87-24.67C423.07,166.08,426.86,158.03,430.42,150.64L430.42,150.64z M457.69,235.71
		c-3.03-1.95-5.66-5.08-7.89-9.38c-2.23-4.3-4.13-8.94-5.71-13.91c-1.57-4.98-2.98-9.87-4.22-14.68c-1.24-4.81-2.55-8.88-3.93-12.19
		c-2.85,9.71-5.21,19.33-7.06,28.85c-1.86,9.53-2.26,16.11-1.2,19.77c0.37,2.33-0.19,3.83-1.68,4.52c-1.49,0.69-3.4,0.64-5.75-0.16
		c-2.35-0.8-4.62-2.51-6.83-5.15c-2.21-2.63-3.51-6.11-3.91-10.44c-0.41-5.33,0.06-13,1.4-23.02c1.35-10.02,3.26-21.21,5.74-33.58
		c2.48-12.37,5.04-24.99,7.68-37.86c2.64-12.87,5.04-24.82,7.21-35.85c2.17-11.03,3.69-20.22,4.58-27.56
		c0.89-7.35,0.66-11.68-0.7-12.99c-1.01-0.99,0.13-2.25,3.44-3.8c3.31-1.55,7.12-2.61,11.45-3.17c4.32-0.56,8.33-0.29,12.01,0.82
		c3.68,1.11,5.39,3.67,5.12,7.67c-0.29,2.67-1.37,8.43-3.24,17.29c-1.87,8.86-3.97,18.31-6.32,28.34
		c-2.35,10.03-4.54,19.4-6.58,28.09c-2.04,8.7-3.53,14.38-4.49,17.06c5.57-6.08,11.59-10.75,18.04-14.02
		c6.45-3.26,12.5-5.27,18.16-6.02c5.65-0.75,10.58-0.16,14.77,1.78c4.2,1.94,6.99,5.06,8.39,9.37c1.41,4.98,1.16,10.4-0.76,16.26
		c-1.91,5.86-5.24,11.33-10,16.4c-4.76,5.07-10.94,9.33-18.55,12.78c-7.61,3.45-16.58,5.42-26.91,5.9l-0.99,0.51
		c0,0.33,0.01,0.42,0,0.25c0-0.17,0-0.17,0,0c0,0.17,0.01,0.67,0.02,1.5c0.01,0.83,0.2,2.41,0.57,4.74
		c0.36,1.66,0.89,4.15,1.61,7.48c0.72,3.32,1.77,6.72,3.15,10.2c1.39,3.48,3.02,6.7,4.9,9.67c1.88,2.97,3.99,4.77,6.33,5.4
		c4.01,0.94,9.06-1.8,15.12-8.23c6.07-6.42,12.12-14.1,18.15-23.02c6.03-8.92,11.56-17.84,16.59-26.75
		c5.03-8.91,8.35-15.21,9.96-18.9c0.97-2.35,2.7-3.12,5.22-2.33c2.51,0.8,3.12,2.87,1.84,6.22c-2.58,6.04-6.47,13.18-11.67,21.42
		c-5.21,8.24-10.75,16.41-16.63,24.5c-5.88,8.09-11.6,15.34-17.17,21.75c-5.57,6.42-10.17,10.65-13.81,12.71
		c-1.65,1.02-3.97,1.98-6.96,2.85C463.22,237.71,460.38,237.34,457.69,235.71L457.69,235.71z M444.58,161.42
		c-0.92,5.35-3,11.21-6.23,17.59c2.35,1.3,4.36,1.77,6.02,1.41c2.33-0.04,5.99-0.67,10.97-1.91c4.98-1.24,9.86-3.31,14.65-6.22
		c4.79-2.9,8.9-6.63,12.33-11.18c3.43-4.55,4.93-10.16,4.5-16.81c-0.7-2.32-2.23-4.22-4.58-5.68c-2.36-1.47-5.36-1.92-9.02-1.37
		c-3.66,0.56-7.79,2.62-12.41,6.19c-4.61,3.57-9.69,9.39-15.23,17.47C445.24,161.25,444.91,161.42,444.58,161.42L444.58,161.42z"/>
	<path class="st1" d="M538.97,188.5c8.98-1.14,16.01-4.74,21.08-10.82c5.07-6.07,8.48-12.38,10.21-18.9
		c1.74-6.53,1.82-12.19,0.24-17c-1.57-4.81-4.35-6.52-8.32-5.13c-3.31,1.38-7.18,4.44-11.61,9.17c-4.43,4.73-8.51,10.46-12.24,17.18
		c-3.73,6.72-6.78,14.27-9.16,22.63c-2.37,8.37-3.17,16.71-2.37,25.03c0.41,4.99,2.13,8.71,5.17,11.17
		c3.04,2.45,6.72,3.81,11.06,4.08c4.34,0.27,8.74-0.38,13.22-1.95c4.48-1.57,8.36-4.04,11.64-7.42c4.92-5.07,8.93-9.96,12.03-14.68
		c3.09-4.71,5.94-9.67,8.53-14.88c2.59-5.2,5.17-10.66,7.75-16.36c2.58-5.7,5.65-11.92,9.22-18.64c1.96-2.7,3.94-3.81,5.95-3.34
		c2.01,0.47,1.88,2.89-0.39,7.25c-0.97,2.01-2.41,5.79-4.33,11.31c-1.91,5.53-4.49,11.82-7.71,18.86
		c-3.23,7.05-7.2,14.19-11.93,21.43c-4.72,7.24-10.21,13.57-16.46,19c-4.61,4.07-10.72,7.33-18.35,9.77
		c-7.63,2.45-17.13,2.26-28.5-0.57c-8.7-2.2-14.93-6.61-18.7-13.22c-3.76-6.61-5.63-14.08-5.59-22.41
		c0.04-8.33,1.58-16.94,4.61-25.81s7-16.69,11.9-23.42c2.94-3.71,6.39-7.34,10.33-10.9c3.94-3.56,8.15-6.54,12.61-8.94
		c4.46-2.4,9.19-3.89,14.18-4.46c4.99-0.57,10.17,0.26,15.54,2.51c6.71,2.9,10.45,7.76,11.22,14.58c0.77,6.82-0.46,13.92-3.68,21.3
		c-3.22,7.38-7.78,14.12-13.69,20.2c-5.91,6.09-12.35,9.85-19.33,11.29c-1.99,0.36-3.5,0.13-4.51-0.68
		c-1.01-0.82-1.53-1.73-1.54-2.73c-0.02-1,0.14-2,0.45-3.01C537.81,189.02,538.3,188.51,538.97,188.5L538.97,188.5z M689.15,136.25
		c0.31-1.34,0.96-2.27,1.96-2.78c0.99-0.51,1.99-0.53,3-0.05c1.01,0.48,1.77,1.39,2.29,2.72c0.52,1.32,0.46,2.99-0.18,5
		c-0.31,1.34-1.34,4.77-3.09,10.29c-1.75,5.53-3.98,12.14-6.7,19.85c-2.72,7.71-5.93,15.67-9.64,23.89
		c-3.71,8.22-7.93,15.7-12.66,22.44c-4.73,6.74-9.82,12.06-15.26,15.98c-5.44,3.92-11.34,5.09-17.69,3.52
		c-8.03-1.88-13.1-6.55-15.21-14.02c-2.11-7.47-2.66-15.79-1.63-24.97c1.03-9.18,2.89-18.21,5.59-27.08
		c2.7-8.87,4.85-15.49,6.45-19.84c0.95-3.01,1.59-5.11,1.91-6.28c0.32-1.17-0.2-1.91-1.53-2.23c-1.33,0.02-2.33,0.2-2.99,0.54
		c-0.66,0.34-1.49,0.94-2.47,1.79c-0.99,0.85-2.22,1.7-3.71,2.56c-1.49,0.85-3.56,1.47-6.22,1.84c-0.96,2.68-2.32,6.03-4.1,10.06
		c-1.77,4.02-3.63,8.05-5.57,12.08c-1.94,4.03-3.71,7.97-5.32,11.83c-1.61,3.86-2.89,6.96-3.86,9.31c-0.63,2.68-1.78,3.53-3.46,2.55
		c-1.68-0.98-1.88-3.31-0.6-6.99c1.58-5.69,3.56-12.3,5.95-19.84c2.39-7.53,4.71-13.65,6.97-18.35c-2.69-1.29-5.55-3.41-8.59-6.37
		c-3.04-2.95-4.95-7.76-5.72-14.41c-1.5-10.98-0.45-18.58,3.16-22.79c3.6-4.22,6.73-6.52,9.39-6.89c8.31-1.12,13.5,0.46,15.57,4.77
		c2.07,4.3,2.64,9.29,1.73,14.97c-1.23,6.69-3.78,14.39-7.65,23.11c3.62-3.06,7.24-6.11,10.86-9.16c2.96-2.38,5.76-4.75,8.39-7.12
		c2.63-2.37,4.61-3.9,5.93-4.59c2.63-2.37,5.77-4.09,9.42-5.14c3.65-1.05,7.16-0.61,10.52,1.34c3.69,1.61,6.15,4.41,7.37,8.39
		c1.23,3.98,0.87,7.82-1.08,11.51c-1.29,2.69-2.98,6.71-5.07,12.07c-2.09,5.36-4.25,11.31-6.48,17.84
		c-2.24,6.53-4.22,13.23-5.95,20.09c-1.73,6.86-2.97,13.12-3.72,18.8c-0.75,5.68-0.85,10.34-0.29,14c0.55,3.66,2.16,5.47,4.83,5.43
		c1-0.02,3.46-2.8,7.37-8.36c3.91-5.56,8.22-12.7,12.92-21.44c4.7-8.74,9.3-18.39,13.81-28.95
		C682.63,156.59,686.31,146.29,689.15,136.25L689.15,136.25z M797.07,132.12c0.31-1.34,1.05-2.18,2.21-2.53
		c1.16-0.35,2.25-0.2,3.26,0.45c1.01,0.65,1.86,1.64,2.54,2.96c0.69,1.32,0.71,2.66,0.06,4c-2.53,9.04-5.88,18.83-10.06,29.4
		c-4.17,10.56-9.03,20.13-14.56,28.71c-5.54,8.58-11.43,15.42-17.69,20.51c-6.25,5.09-12.56,6.69-18.92,4.78
		c-2.23,6.37-5.19,15.08-8.85,26.13c-3.67,11.05-8.09,21.87-13.26,32.44c-5.17,10.58-11.2,19.83-18.08,27.77
		c-6.88,7.94-14.48,11.97-22.81,12.09c-11.66,0.18-19.78-2.37-24.36-7.63c-4.58-5.26-6.94-12.56-7.08-21.89
		c-0.13-8.66,0.84-16.18,2.91-22.54c2.07-6.37,4.57-11.65,7.51-15.86c2.94-4.21,6.14-7.34,9.61-9.39c3.47-2.05,6.54-3.1,9.2-3.14
		c4-0.06,6.94,1.56,8.82,4.86c1.88,3.31,2.86,6.96,2.92,10.95c0.06,4-0.55,7.67-1.83,11.03c-1.28,3.35-2.76,5.04-4.42,5.07
		c-1,0.02-1.51-0.81-1.54-2.48c0.32-1,0.79-2.84,1.42-5.52c0.63-2.68,1.09-5.35,1.38-8.02c0.29-2.67,0.01-5.08-0.86-7.24
		c-0.86-2.15-2.63-3.21-5.3-3.17c-1.33,0.02-3.32,0.88-5.96,2.59c-2.64,1.7-5.19,4.33-7.63,7.86c-2.44,3.54-4.63,8.15-6.54,13.84
		c-1.91,5.69-2.81,12.37-2.7,20.04c0.13,8.33,2.13,14.13,6.01,17.41c3.88,3.27,7.65,4.88,11.32,4.83c4.33-0.07,8.54-2.63,12.63-7.69
		c4.09-5.06,7.99-11.54,11.7-19.42c3.71-7.89,7.08-16.52,10.11-25.9c3.02-9.38,5.64-18.33,7.84-26.86
		c2.2-8.53,3.93-16.06,5.16-22.58c1.24-6.52,2-10.94,2.3-13.28c-1.63,2.36-3.42,5.22-5.37,8.58c-1.95,3.36-4.06,6.64-6.35,9.84
		c-2.28,3.2-4.49,6.23-6.61,9.1c-2.12,2.86-3.84,4.98-5.15,6.33c-3.29,2.72-6.77,4.35-10.42,4.91c-3.66,0.56-6.99,0.36-10.01-0.6
		c-3.01-0.96-5.54-2.42-7.57-4.39c-2.03-1.97-3.06-4.29-3.1-6.95c-0.04-2.33,0.73-6.93,2.29-13.78c1.56-6.85,3.45-14.38,5.66-22.58
		c2.21-8.2,4.09-16.31,5.63-24.33c1.54-8.02,2.28-14.53,2.2-19.53c-0.38-3.33-1.68-6.39-3.89-9.19c-2.21-2.8-6.79-2.48-13.73,0.95
		c-0.99,0.68-1.75,0.19-2.27-1.46c-0.52-1.66,0.2-3,2.19-4.03c6.62-3.1,12.85-4.28,18.69-3.53c5.85,0.74,9.94,1.77,12.29,3.06
		c2.69,1.63,5.23,4,7.61,7.14c2.38,3.13,3.28,7.7,2.71,13.71c-0.83,11.01-2.59,21.87-5.26,32.57c-2.67,10.71-4.87,19.57-6.6,26.59
		c-1.73,7.03-2.49,11.54-2.3,13.53c0.2,2,2.58-0.04,7.16-6.11c4.57-6.4,9.78-14.73,15.62-24.98c5.84-10.25,11.53-20.25,17.04-30
		c1.59-5.02,2.94-9.79,4.03-14.31c1.1-4.52,1.63-8.11,1.59-10.77c-0.02-1.33-0.71-2.99-2.07-4.97l-2.04-2.97
		c-0.01-0.67,1.31-1.52,3.96-2.56c2.65-1.04,5.56-1.58,8.72-1.63c3.16-0.05,6.17,0.49,9.02,1.61c2.85,1.12,4.47,3.68,4.87,7.67
		c0.39,3.99,0.14,9.41-0.76,16.26c-0.9,6.84-2.12,13.94-3.68,21.3c-1.56,7.36-3.12,14.38-4.68,21.07
		c-1.57,6.69-2.82,11.87-3.77,15.55c-0.32,0.67-0.39,1.67-0.2,3c0.19,1.33,0.78,2.16,1.79,2.47c2.68,0.96,6.15-1.18,10.4-6.41
		c4.25-5.23,8.74-11.88,13.45-19.95c4.71-8.07,9.08-16.88,13.1-26.44C791.74,148.95,794.86,140.16,797.07,132.12L797.07,132.12z"/>
	<path class="st2" d="M122.19-307.44c221.63,0,407.95,151.09,461.62,355.88h-14.3c-53.32-197.08-233.38-342.08-447.32-342.08
		s-394,145-447.32,342.08h-14.3C-285.75-156.35-99.43-307.44,122.19-307.44L122.19-307.44z M585.26,285.37
		c-51.68,207.68-239.39,361.59-463.07,361.59s-411.39-153.91-463.07-361.59h14.21c51.36,199.99,232.85,347.79,448.86,347.79
		s397.5-147.8,448.86-347.79H585.26L585.26,285.37z"/>
	<path class="st2" d="M122.19-285.64c209.49,0,385.92,141.47,439.03,334.07h-5.54c-52.96-189.62-226.97-328.73-433.49-328.73
		S-258.33-141.18-311.29,48.44h-5.54C-263.72-144.17-87.3-285.64,122.19-285.64L122.19-285.64z M562.76,285.37
		C511.6,480.89,333.75,625.15,122.19,625.15s-389.4-144.27-440.57-339.78h5.54c51.03,192.53,226.45,334.44,435.03,334.44
		c208.58,0,384-141.91,435.03-334.44H562.76L562.76,285.37z"/>
	<path class="st3" d="M-286.56,27.86c4.12,0,7.46,3.34,7.46,7.46c0,4.12-3.34,7.46-7.46,7.46c-4.12,0-7.46-3.34-7.46-7.46
		C-294.03,31.2-290.68,27.86-286.56,27.86L-286.56,27.86z"/>
	<path class="st3" d="M-276.07,0.41c4.11,0.28,7.22,3.84,6.94,7.95c-0.28,4.11-3.84,7.22-7.95,6.94c-4.11-0.28-7.22-3.84-6.94-7.95
		C-283.75,3.23-280.18,0.13-276.07,0.41L-276.07,0.41z"/>
	<path class="st3" d="M-263.74-26.27c4.08,0.56,6.94,4.32,6.38,8.41c-0.56,4.08-4.32,6.94-8.41,6.38c-4.08-0.56-6.94-4.32-6.38-8.41
		C-271.58-23.97-267.82-26.83-263.74-26.27L-263.74-26.27z"/>
	<path class="st3" d="M-249.61-52.04c4.04,0.84,6.63,4.78,5.79,8.82c-0.84,4.04-4.79,6.63-8.82,5.79c-4.04-0.84-6.63-4.79-5.79-8.82
		C-257.6-50.28-253.65-52.88-249.61-52.04L-249.61-52.04z"/>
	<path class="st3" d="M-233.77-76.79c3.97,1.11,6.29,5.23,5.18,9.2c-1.11,3.97-5.23,6.29-9.2,5.18c-3.97-1.11-6.29-5.23-5.18-9.2
		C-241.86-75.58-237.74-77.9-233.77-76.79L-233.77-76.79z"/>
	<path class="st3" d="M-216.28-100.41c3.89,1.38,5.92,5.64,4.54,9.53c-1.38,3.89-5.64,5.92-9.53,4.54
		c-3.88-1.38-5.92-5.64-4.54-9.53C-224.43-99.75-220.16-101.78-216.28-100.41L-216.28-100.41z"/>
	<path class="st3" d="M-197.22-122.78c3.78,1.64,5.52,6.03,3.88,9.81c-1.64,3.78-6.03,5.52-9.81,3.88
		c-3.78-1.64-5.52-6.03-3.88-9.81C-205.4-122.68-201-124.42-197.22-122.78L-197.22-122.78z"/>
	<path class="st3" d="M-176.68-143.8c3.66,1.89,5.1,6.39,3.2,10.05c-1.89,3.66-6.39,5.1-10.06,3.2c-3.66-1.89-5.1-6.39-3.2-10.05
		C-184.85-144.26-180.35-145.69-176.68-143.8L-176.68-143.8z"/>
	<path class="st3" d="M-154.76-163.37c3.53,2.14,4.65,6.73,2.51,10.25c-2.14,3.53-6.73,4.65-10.25,2.51
		c-3.53-2.14-4.65-6.73-2.51-10.25C-162.88-164.38-158.29-165.51-154.76-163.37L-154.76-163.37z"/>
	<path class="st3" d="M-131.56-181.41c3.37,2.37,4.18,7.03,1.81,10.4c-2.37,3.37-7.03,4.18-10.4,1.81
		c-3.37-2.37-4.18-7.03-1.81-10.4C-139.59-182.97-134.93-183.78-131.56-181.41L-131.56-181.41z"/>
	<path class="st3" d="M-107.18-197.83c3.2,2.6,3.69,7.29,1.1,10.5c-2.6,3.2-7.3,3.69-10.5,1.1c-3.2-2.6-3.69-7.29-1.1-10.5
		C-115.09-199.93-110.39-200.42-107.18-197.83L-107.18-197.83z"/>
	<path class="st3" d="M-81.73-212.6c3.02,2.81,3.19,7.53,0.38,10.55c-2.81,3.02-7.53,3.19-10.55,0.38
		c-3.02-2.81-3.19-7.53-0.38-10.55C-89.47-215.24-84.74-215.41-81.73-212.6L-81.73-212.6z"/>
	<path class="st3" d="M-55.34-225.56c2.82,3.01,2.67,7.73-0.34,10.55c-3.01,2.82-7.73,2.67-10.55-0.34
		c-2.82-3.01-2.67-7.73,0.34-10.55C-62.88-228.72-58.16-228.56-55.34-225.56L-55.34-225.56z"/>
	<path class="st3" d="M-28.14-236.69c2.61,3.19,2.14,7.89-1.06,10.5c-3.19,2.61-7.89,2.14-10.5-1.06c-2.61-3.19-2.14-7.89,1.06-10.5
		C-35.45-240.35-30.75-239.88-28.14-236.69L-28.14-236.69z"/>
	<path class="st3" d="M-0.24-245.94c2.39,3.36,1.59,8.02-1.77,10.4c-3.36,2.38-8.02,1.59-10.4-1.77c-2.39-3.36-1.59-8.02,1.77-10.4
		C-7.28-250.1-2.62-249.3-0.24-245.94L-0.24-245.94z"/>
	<path class="st3" d="M28.22-253.28c2.15,3.52,1.04,8.11-2.47,10.26c-3.51,2.15-8.11,1.04-10.26-2.47
		c-2.15-3.52-1.04-8.11,2.47-10.26C21.48-257.9,26.07-256.79,28.22-253.28L28.22-253.28z"/>
	<path class="st3" d="M57.15-258.64c1.91,3.65,0.49,8.16-3.16,10.07c-3.66,1.91-8.16,0.49-10.07-3.16
		c-1.91-3.65-0.49-8.16,3.16-10.07C50.73-263.71,55.24-262.3,57.15-258.64L57.15-258.64z"/>
	<path class="st3" d="M86.34-262.04c1.65,3.77-0.07,8.18-3.84,9.83c-3.77,1.65-8.18-0.07-9.83-3.84c-1.65-3.77,0.07-8.18,3.84-9.83
		C80.29-267.54,84.69-265.82,86.34-262.04L86.34-262.04z"/>
	<path class="st3" d="M115.7-263.44c1.39,3.88-0.62,8.15-4.5,9.54c-3.88,1.39-8.15-0.62-9.55-4.5c-1.39-3.88,0.62-8.15,4.5-9.55
		C110.04-269.34,114.31-267.32,115.7-263.44L115.7-263.44z"/>
	<path class="st3" d="M145.09-262.84c1.13,3.97-1.18,8.09-5.14,9.22c-3.96,1.13-8.09-1.18-9.22-5.14c-1.13-3.97,1.18-8.09,5.14-9.22
		C139.84-269.11,143.96-266.81,145.09-262.84L145.09-262.84z"/>
	<path class="st3" d="M174.37-260.25c0.85,4.03-1.72,7.99-5.76,8.84c-4.03,0.85-7.99-1.72-8.84-5.76c-0.85-4.03,1.72-7.99,5.76-8.84
		C169.56-266.86,173.52-264.28,174.37-260.25L174.37-260.25z"/>
	<path class="st3" d="M203.4-255.66c0.58,4.08-2.26,7.86-6.34,8.43c-4.08,0.58-7.86-2.27-8.43-6.35c-0.58-4.08,2.26-7.86,6.34-8.43
		C199.05-262.58,202.83-259.74,203.4-255.66L203.4-255.66z"/>
	<path class="st3" d="M232.06-249.11c0.3,4.11-2.79,7.69-6.9,7.98c-4.11,0.3-7.69-2.79-7.98-6.9c-0.3-4.11,2.79-7.68,6.91-7.98
		C228.19-256.31,231.76-253.22,232.06-249.11L232.06-249.11z"/>
	<path class="st3" d="M260.2-240.63c0.02,4.12-3.31,7.48-7.43,7.49c-4.12,0.02-7.48-3.31-7.49-7.43c-0.02-4.12,3.31-7.48,7.43-7.49
		C256.83-248.07,260.19-244.75,260.2-240.63L260.2-240.63z"/>
	<path class="st3" d="M287.7-230.24c-0.26,4.11-3.81,7.23-7.93,6.97c-4.11-0.26-7.23-3.81-6.97-7.93c0.26-4.11,3.81-7.23,7.93-6.97
		C284.85-237.91,287.97-234.36,287.7-230.24L287.7-230.24z"/>
	<path class="st3" d="M314.43-218.01c-0.54,4.09-4.29,6.96-8.38,6.41c-4.09-0.54-6.96-4.3-6.41-8.38c0.54-4.08,4.3-6.96,8.38-6.41
		C312.1-225.85,314.97-222.1,314.43-218.01L314.43-218.01z"/>
	<path class="st3" d="M340.27-203.99c-0.82,4.04-4.76,6.65-8.8,5.83c-4.04-0.82-6.65-4.76-5.83-8.8c0.82-4.04,4.76-6.65,8.8-5.83
		C338.48-211.97,341.09-208.03,340.27-203.99L340.27-203.99z"/>
	<path class="st3" d="M365.09-188.25c-1.09,3.97-5.2,6.31-9.17,5.22c-3.97-1.09-6.31-5.2-5.22-9.17c1.09-3.97,5.2-6.31,9.17-5.22
		C363.85-196.33,366.18-192.22,365.09-188.25L365.09-188.25z"/>
	<path class="st3" d="M388.78-170.85c-1.36,3.89-5.62,5.94-9.51,4.58c-3.89-1.36-5.94-5.62-4.58-9.51c1.36-3.89,5.62-5.94,9.51-4.58
		C388.09-179,390.14-174.74,388.78-170.85L388.78-170.85z"/>
	<path class="st3" d="M411.23-151.88c-1.62,3.79-6.01,5.54-9.8,3.92c-3.79-1.62-5.54-6.01-3.92-9.8c1.62-3.79,6.01-5.54,9.8-3.92
		C411.1-160.05,412.85-155.67,411.23-151.88L411.23-151.88z"/>
	<path class="st3" d="M432.34-131.42c-1.88,3.67-6.37,5.12-10.04,3.25c-3.67-1.88-5.12-6.37-3.25-10.04
		c1.88-3.67,6.37-5.12,10.04-3.25C432.76-139.59,434.22-135.09,432.34-131.42L432.34-131.42z"/>
	<path class="st3" d="M452.01-109.58c-2.12,3.53-6.71,4.68-10.24,2.56c-3.53-2.12-4.68-6.71-2.56-10.24
		c2.12-3.53,6.71-4.68,10.24-2.56C452.99-117.7,454.13-113.11,452.01-109.58L452.01-109.58z"/>
	<path class="st3" d="M470.14-86.44c-2.36,3.38-7.01,4.21-10.39,1.85c-3.38-2.36-4.21-7.01-1.85-10.39
		c2.36-3.38,7.01-4.21,10.39-1.85C471.67-94.48,472.5-89.83,470.14-86.44L470.14-86.44z"/>
	<path class="st3" d="M486.79-62.19c-2.58,3.21-7.28,3.72-10.49,1.14c-3.21-2.58-3.72-7.28-1.14-10.49
		c2.58-3.21,7.28-3.72,10.49-1.14C488.87-70.1,489.38-65.41,486.79-62.19L486.79-62.19z"/>
	<path class="st3" d="M501.62-36.81c-2.79,3.03-7.52,3.22-10.54,0.42c-3.03-2.8-3.22-7.52-0.42-10.55c2.8-3.03,7.52-3.22,10.54-0.42
		C504.23-44.56,504.42-39.84,501.62-36.81L501.62-36.81z"/>
	<path class="st3" d="M514.67-10.51c-2.99,2.83-7.72,2.7-10.55-0.29c-2.83-3-2.7-7.72,0.3-10.55c2.99-2.83,7.72-2.7,10.55,0.3
		C517.8-18.07,517.67-13.35,514.67-10.51L514.67-10.51z"/>
	<path class="st3" d="M525.92,16.65c-3.18,2.62-7.89,2.17-10.51-1.01c-2.62-3.18-2.17-7.88,1.01-10.5c3.18-2.62,7.88-2.17,10.5,1.01
		S529.1,14.03,525.92,16.65L525.92,16.65z"/>
	<path class="st3" d="M535.29,44.52c-3.35,2.4-8.01,1.63-10.41-1.73c-2.4-3.35-1.63-8.01,1.73-10.41c3.35-2.4,8.01-1.63,10.41,1.73
		C539.41,37.45,538.64,42.12,535.29,44.52L535.29,44.52z"/>
	<path class="st3" d="M-286.56,307.79c4.12,0,7.46-3.34,7.46-7.46c0-4.12-3.34-7.46-7.46-7.46c-4.12,0-7.46,3.34-7.46,7.46
		C-294.03,304.44-290.68,307.79-286.56,307.79L-286.56,307.79z"/>
	<path class="st3" d="M-276.07,335.24c4.11-0.28,7.22-3.84,6.94-7.95c-0.28-4.11-3.84-7.22-7.95-6.94
		c-4.11,0.28-7.22,3.84-6.94,7.95C-283.75,332.41-280.18,335.52-276.07,335.24L-276.07,335.24z"/>
	<path class="st3" d="M-263.74,361.91c4.08-0.56,6.94-4.32,6.38-8.41c-0.56-4.08-4.32-6.94-8.41-6.38
		c-4.08,0.56-6.94,4.32-6.38,8.41C-271.58,359.62-267.82,362.47-263.74,361.91L-263.74,361.91z"/>
	<path class="st3" d="M-249.61,387.68c4.04-0.84,6.63-4.79,5.79-8.82c-0.84-4.04-4.79-6.63-8.82-5.79
		c-4.04,0.84-6.63,4.79-5.79,8.82C-257.6,385.93-253.65,388.52-249.61,387.68L-249.61,387.68z"/>
	<path class="st3" d="M-233.77,412.44c3.97-1.11,6.29-5.23,5.18-9.2c-1.11-3.97-5.23-6.29-9.2-5.18c-3.97,1.11-6.29,5.23-5.18,9.2
		C-241.86,411.23-237.74,413.55-233.77,412.44L-233.77,412.44z"/>
	<path class="st3" d="M-216.28,436.05c3.89-1.38,5.92-5.64,4.54-9.53c-1.38-3.88-5.64-5.92-9.53-4.54
		c-3.88,1.38-5.92,5.64-4.54,9.53C-224.43,435.4-220.16,437.43-216.28,436.05L-216.28,436.05z"/>
	<path class="st3" d="M-197.22,458.42c3.78-1.64,5.52-6.03,3.88-9.81c-1.64-3.78-6.03-5.52-9.81-3.88
		c-3.78,1.64-5.52,6.03-3.88,9.81C-205.4,458.32-201,460.06-197.22,458.42L-197.22,458.42z"/>
	<path class="st3" d="M-176.68,479.44c3.66-1.89,5.1-6.39,3.2-10.06c-1.89-3.66-6.39-5.1-10.06-3.2c-3.66,1.89-5.1,6.39-3.2,10.06
		C-184.85,479.9-180.35,481.34-176.68,479.44L-176.68,479.44z"/>
	<path class="st3" d="M-154.76,499.02c3.53-2.14,4.65-6.73,2.51-10.25c-2.14-3.53-6.73-4.65-10.25-2.51
		c-3.53,2.14-4.65,6.73-2.51,10.25C-162.88,500.03-158.29,501.16-154.76,499.02L-154.76,499.02z"/>
	<path class="st3" d="M-131.56,517.06c3.37-2.37,4.18-7.03,1.81-10.4c-2.37-3.37-7.03-4.18-10.4-1.81
		c-3.37,2.37-4.18,7.03-1.81,10.4C-139.59,518.62-134.93,519.43-131.56,517.06L-131.56,517.06z"/>
	<path class="st3" d="M-107.18,533.47c3.2-2.6,3.69-7.29,1.1-10.5c-2.6-3.2-7.3-3.69-10.5-1.1c-3.2,2.6-3.69,7.29-1.1,10.5
		C-115.09,535.58-110.39,536.07-107.18,533.47L-107.18,533.47z"/>
	<path class="st3" d="M-81.73,548.25c3.02-2.81,3.19-7.53,0.38-10.55c-2.81-3.02-7.53-3.19-10.55-0.38
		c-3.02,2.81-3.19,7.53-0.38,10.55C-89.47,550.88-84.74,551.05-81.73,548.25L-81.73,548.25z"/>
	<path class="st3" d="M-55.34,561.2c2.82-3.01,2.67-7.73-0.34-10.55c-3.01-2.82-7.73-2.67-10.55,0.34
		c-2.82,3.01-2.67,7.73,0.34,10.55C-62.88,564.36-58.16,564.21-55.34,561.2L-55.34,561.2z"/>
	<path class="st3" d="M-28.14,572.33c2.61-3.19,2.14-7.89-1.06-10.5c-3.19-2.61-7.89-2.14-10.5,1.06c-2.61,3.19-2.14,7.89,1.06,10.5
		C-35.45,576-30.75,575.53-28.14,572.33L-28.14,572.33z"/>
	<path class="st3" d="M-0.24,581.59c2.39-3.36,1.59-8.02-1.77-10.4c-3.36-2.39-8.02-1.59-10.4,1.77c-2.39,3.36-1.59,8.02,1.77,10.4
		C-7.28,585.74-2.62,584.95-0.24,581.59L-0.24,581.59z"/>
	<path class="st3" d="M28.22,588.92c2.15-3.52,1.04-8.11-2.47-10.26c-3.51-2.15-8.11-1.04-10.26,2.47
		c-2.15,3.52-1.04,8.11,2.47,10.26C21.48,593.55,26.07,592.44,28.22,588.92L28.22,588.92z"/>
	<path class="st3" d="M57.15,594.29c1.91-3.65,0.49-8.16-3.16-10.07c-3.66-1.91-8.16-0.49-10.07,3.16
		c-1.91,3.65-0.49,8.16,3.16,10.07C50.73,599.36,55.24,597.94,57.15,594.29L57.15,594.29z"/>
	<path class="st3" d="M86.34,597.69c1.65-3.77-0.07-8.18-3.84-9.83c-3.77-1.65-8.18,0.07-9.83,3.84c-1.65,3.77,0.07,8.18,3.84,9.83
		C80.29,603.18,84.69,601.46,86.34,597.69L86.34,597.69z"/>
	<path class="st3" d="M115.7,599.09c1.39-3.88-0.62-8.15-4.5-9.54c-3.88-1.39-8.15,0.62-9.55,4.5c-1.39,3.88,0.62,8.15,4.5,9.55
		C110.04,604.98,114.31,602.97,115.7,599.09L115.7,599.09z"/>
	<path class="st3" d="M145.09,598.49c1.13-3.97-1.18-8.09-5.14-9.22c-3.96-1.12-8.09,1.18-9.22,5.14c-1.13,3.97,1.18,8.09,5.14,9.22
		C139.84,604.76,143.96,602.45,145.09,598.49L145.09,598.49z"/>
	<path class="st3" d="M174.37,595.89c0.85-4.03-1.72-7.99-5.76-8.84c-4.03-0.85-7.99,1.72-8.84,5.76c-0.85,4.03,1.72,7.99,5.76,8.84
		C169.56,602.5,173.52,599.92,174.37,595.89L174.37,595.89z"/>
	<path class="st3" d="M203.4,591.31c0.58-4.08-2.26-7.86-6.34-8.43c-4.08-0.58-7.86,2.27-8.43,6.35c-0.58,4.08,2.26,7.86,6.34,8.43
		C199.05,598.23,202.83,595.39,203.4,591.31L203.4,591.31z"/>
	<path class="st3" d="M232.06,584.76c0.3-4.11-2.79-7.68-6.9-7.98c-4.11-0.3-7.69,2.79-7.98,6.9c-0.3,4.11,2.79,7.69,6.91,7.98
		C228.19,591.96,231.76,588.87,232.06,584.76L232.06,584.76z"/>
	<path class="st3" d="M260.2,576.27c0.02-4.12-3.31-7.48-7.43-7.49c-4.12-0.02-7.48,3.31-7.49,7.43c-0.02,4.12,3.31,7.48,7.43,7.49
		C256.83,583.72,260.19,580.39,260.2,576.27L260.2,576.27z"/>
	<path class="st3" d="M287.7,565.89c-0.26-4.11-3.81-7.23-7.93-6.97c-4.11,0.26-7.23,3.81-6.97,7.93c0.26,4.11,3.81,7.23,7.93,6.97
		C284.85,573.55,287.97,570,287.7,565.89L287.7,565.89z"/>
	<path class="st3" d="M314.43,553.66c-0.54-4.08-4.29-6.96-8.38-6.41c-4.09,0.54-6.96,4.3-6.41,8.38c0.54,4.09,4.3,6.96,8.38,6.41
		C312.1,561.5,314.97,557.75,314.43,553.66L314.43,553.66z"/>
	<path class="st3" d="M340.27,539.64c-0.82-4.04-4.76-6.65-8.8-5.83c-4.04,0.82-6.65,4.76-5.83,8.8c0.82,4.04,4.76,6.65,8.8,5.83
		C338.48,547.62,341.09,543.68,340.27,539.64L340.27,539.64z"/>
	<path class="st3" d="M365.09,523.89c-1.09-3.97-5.2-6.31-9.17-5.22c-3.97,1.09-6.31,5.2-5.22,9.17c1.09,3.97,5.2,6.31,9.17,5.22
		C363.85,531.98,366.18,527.87,365.09,523.89L365.09,523.89z"/>
	<path class="st3" d="M388.78,506.49c-1.36-3.89-5.62-5.94-9.51-4.58c-3.89,1.36-5.94,5.62-4.58,9.51c1.36,3.89,5.62,5.94,9.51,4.58
		C388.09,514.64,390.14,510.39,388.78,506.49L388.78,506.49z"/>
	<path class="st3" d="M411.23,487.52c-1.62-3.79-6.01-5.54-9.8-3.92c-3.79,1.62-5.54,6.01-3.92,9.8c1.62,3.79,6.01,5.54,9.8,3.92
		C411.1,495.7,412.85,491.31,411.23,487.52L411.23,487.52z"/>
	<path class="st3" d="M432.34,467.07c-1.88-3.67-6.37-5.12-10.04-3.25c-3.67,1.88-5.12,6.37-3.25,10.04
		c1.88,3.67,6.37,5.12,10.04,3.25C432.76,475.23,434.22,470.74,432.34,467.07L432.34,467.07z"/>
	<path class="st3" d="M452.01,445.22c-2.12-3.53-6.71-4.68-10.24-2.56c-3.53,2.12-4.68,6.71-2.56,10.24
		c2.12,3.53,6.71,4.68,10.24,2.56C452.99,453.34,454.13,448.76,452.01,445.22L452.01,445.22z"/>
	<path class="st3" d="M470.14,422.09c-2.36-3.38-7.01-4.21-10.39-1.85c-3.38,2.36-4.21,7.01-1.85,10.39
		c2.36,3.38,7.01,4.21,10.39,1.85C471.67,430.12,472.5,425.47,470.14,422.09L470.14,422.09z"/>
	<path class="st3" d="M486.79,397.84c-2.58-3.21-7.28-3.72-10.49-1.14c-3.21,2.58-3.72,7.28-1.14,10.49
		c2.58,3.21,7.28,3.72,10.49,1.14C488.87,405.75,489.38,401.05,486.79,397.84L486.79,397.84z"/>
	<path class="st3" d="M501.62,372.45c-2.79-3.03-7.52-3.22-10.54-0.42c-3.03,2.8-3.22,7.52-0.42,10.55
		c2.8,3.03,7.52,3.22,10.54,0.42C504.23,380.21,504.42,375.48,501.62,372.45L501.62,372.45z"/>
	<path class="st3" d="M514.67,346.16c-2.99-2.83-7.72-2.7-10.55,0.29c-2.83,3-2.7,7.72,0.3,10.55c2.99,2.83,7.72,2.7,10.55-0.3
		C517.8,353.71,517.67,348.99,514.67,346.16L514.67,346.16z"/>
	<path class="st3" d="M525.92,319c-3.18-2.62-7.89-2.17-10.51,1.01c-2.62,3.18-2.17,7.88,1.01,10.5c3.18,2.62,7.88,2.17,10.5-1.01
		C529.55,326.32,529.1,321.62,525.92,319L525.92,319z"/>
	<path class="st3" d="M535.29,291.13c-3.35-2.4-8.01-1.63-10.41,1.73c-2.4,3.35-1.63,8.01,1.73,10.41c3.35,2.4,8.01,1.63,10.41-1.73
		C539.41,298.19,538.64,293.53,535.29,291.13L535.29,291.13z"/>
	<path class="st3" d="M122.56,496.08c-2.71-3.75-9.27-10.85-14.78-9.91c-5.51,0.94-7.46,8.33-5.45,13.4
		c2.01,5.06,10.01,12.5,15.42,16.96c5.41,4.46,5.89,5.07,7.8,3.36c1.91-1.71,11.57-11.01,15.69-19.22
		c2.45-4.89,0.81-12.38-4.3-13.63C133.46,486.19,128.43,489.03,122.56,496.08L122.56,496.08z"/>
	<path class="st4" d="M118.12,488.81c-1.47-1.27-3.19-2.4-5.1-3.09c-1.72-0.62-3.6-0.89-5.59-0.59c-6.05,0.9-8.99,8.46-6.79,14
		c2.2,5.54,9.63,14.01,15.54,18.89c5.91,4.88,6.85,5.68,8.93,3.81c4.44-3.98,13.31-12.68,16.82-20.08c1.71-3.62,3.4-8.08,2.05-11.24
		c-1.88-4.4-6.04-6.25-10.75-5.15c-3.16,0.74-7.45,4.62-10.78,8.42C121.99,494.31,120.71,491.05,118.12,488.81L118.12,488.81z
		 M108.91,488.88c-5.3,0.9-6.13,5.42-4.19,10.32c1.94,4.9,7.69,10.81,12.92,15.13c5.23,4.32,5.32,4.63,7.17,2.98
		c1.85-1.65,9.49-8.52,13.47-16.46c2.51-5.01,3.38-11.48-2.21-11.63c-7.02-0.19-11.5,10.43-13.73,10.04
		c-0.56-0.1-1.32-0.7-2.56-2.69C117.67,493.16,113.4,488.12,108.91,488.88L108.91,488.88z"/>
	<path class="st3" d="M57.19,496.08c-2.71-3.75-9.27-10.85-14.78-9.91c-5.51,0.94-7.46,8.33-5.45,13.4
		c2.01,5.06,10.01,12.5,15.42,16.96c5.41,4.46,5.89,5.07,7.8,3.36c1.91-1.71,11.57-11.01,15.69-19.22
		c2.45-4.89,0.81-12.38-4.3-13.63C68.09,486.19,63.06,489.03,57.19,496.08L57.19,496.08z"/>
	<path class="st4" d="M52.76,488.81c-1.47-1.27-3.19-2.4-5.1-3.09c-1.72-0.62-3.6-0.89-5.59-0.59c-6.05,0.9-8.99,8.46-6.79,14
		c2.2,5.54,9.63,14.01,15.54,18.89c5.91,4.88,6.85,5.68,8.93,3.81c4.44-3.98,13.31-12.68,16.82-20.08c1.71-3.62,3.4-8.08,2.05-11.24
		c-1.88-4.4-6.04-6.25-10.75-5.15c-3.16,0.74-7.45,4.62-10.78,8.42C56.62,494.31,55.34,491.05,52.76,488.81L52.76,488.81z
		 M43.54,488.88c-5.3,0.9-6.13,5.42-4.19,10.32c1.94,4.9,7.69,10.81,12.93,15.13c5.23,4.32,5.32,4.63,7.17,2.98
		c1.85-1.65,9.49-8.52,13.47-16.46c2.51-5.01,3.38-11.48-2.21-11.63c-7.02-0.19-11.5,10.43-13.73,10.04
		c-0.56-0.1-1.32-0.7-2.56-2.69C52.31,493.16,48.03,488.12,43.54,488.88L43.54,488.88z"/>
	<path class="st3" d="M187.93,496.08c-2.71-3.75-9.27-10.85-14.78-9.91c-5.51,0.94-7.46,8.33-5.45,13.4
		c2.01,5.06,10.01,12.5,15.42,16.96c5.41,4.46,5.89,5.07,7.8,3.36c1.91-1.71,11.57-11.01,15.69-19.22
		c2.45-4.89,0.81-12.38-4.3-13.63C198.83,486.19,193.8,489.03,187.93,496.08L187.93,496.08z"/>
	<path class="st4" d="M183.49,488.81c-1.47-1.27-3.19-2.4-5.1-3.09c-1.72-0.62-3.6-0.89-5.59-0.59c-6.05,0.9-8.99,8.46-6.79,14
		c2.2,5.54,9.63,14.01,15.54,18.89c5.91,4.88,6.85,5.68,8.93,3.81c4.44-3.98,13.31-12.68,16.82-20.08c1.71-3.62,3.4-8.08,2.05-11.24
		c-1.88-4.4-6.04-6.25-10.75-5.15c-3.16,0.74-7.45,4.62-10.78,8.42C187.36,494.31,186.08,491.05,183.49,488.81L183.49,488.81z
		 M174.28,488.88c-5.3,0.9-6.13,5.42-4.19,10.32c1.94,4.9,7.69,10.81,12.93,15.13c5.23,4.32,5.32,4.63,7.17,2.98
		s9.49-8.52,13.47-16.46c2.51-5.01,3.38-11.48-2.21-11.63c-7.02-0.19-11.5,10.43-13.73,10.04c-0.56-0.1-1.32-0.7-2.56-2.69
		C183.04,493.16,178.77,488.12,174.28,488.88L174.28,488.88z"/>
	<path class="st5" d="M-15.98-74.17c3.42,16.17-0.71,21.92,2.71,38.09c3.6,11.96,14.6,10.36,27.93,11.21l142.63,0.31
		c35.31-2.73,101.2,2.99,104.39-6.42c-0.28-12.68,1.16-18.86,0.88-31.54c-0.67-13.73,1.25-28.2-16.78-29.37l-92-4.68
		C153.79-96.55,53.99-97.5-15.98-74.17L-15.98-74.17z"/>
	<path class="st6" d="M265.33-84.37c0.49,12.54,4.01,38.77,0.82,52.44c-2.23,9.6-9.89,9.57-21.61,9.62
		c-39.24,0.17-122.89,1.38-188.75,0.71c-23.15-0.24-44.79-0.04-59.27-1.13c-11.01-0.83-12.9-7.66-13.43-10.89
		c-1.2-7.26-2.62-18.45-3.81-28.54l7.52-0.61l3.36,26.06c0.19,1.51,3.47,7.74,12.2,7.9C19.5-28.47,51.79-28.1,88-28.04
		c49.14,0.08,105.13-0.35,138.29-1.1c14.46-0.33,22.03-0.11,26.79-1.93c8.07-3.09,6.5-11.52,5.54-34.56
		c-0.31-7.52-3.51-14.55-2.96-18.99L265.33-84.37L265.33-84.37z"/>
	<path class="st3" d="M197.95-161.3c11.52,4.67,29.1,16.58,42.41,28.25c11.33,9.93,18.76,18.94,25.73,31.24
		c15.16,26.75-4.06,43.6-10.21,37.71c-6.15-5.89-12.28-12.38-22.03-9.54c-9.75,2.84-24.38,0.23-29.47,4.22
		c-5.09,3.99-8.94,8.02-13.94,8.5c-2.56,0.24-22.95-26.33-44.48-13c-5.2,3.22-5.35,9.64-5.53,15.91c-0.21,7.1-0.45,14.03-8.11,15.92
		c-14.42,3.58-13.95-6.88-10.56-13.34c3.39-6.45,6.56-15.87-0.43-19.05c-2.97-1.35-12.82-3.44-21.16-3.36
		c-11.27,0.11-25.54,3.63-29.5,6.84c-6.89,5.59-17.61,0.67-21.98-3.55c-4.38-4.22-18.33-0.34-24.01,3.64
		c-3.55,2.49-13.47-0.79-22.14-0.16c-5.18,0.37-8.41,2.54-10.35,5.75c-1.92,3.18-1.15,9.48-2.08,12.05
		c-2.79,7.63-7.52,10.96-13.93,7.3c-7.65-4.36-7.05-16.95-3.8-25.87c4.94-13.56,40.08-32.25,81.78-51.42
		c27.4-12.6,54.25-24.38,73.6-33.69c20.67-9.94,26.98-13.36,33.82-14.2C168.2-171.95,176.63-169.95,197.95-161.3L197.95-161.3z"/>
	<path class="st4" d="M-13.93-92.09c33.72-19.33,116.56-58.45,137.18-67.39c25.2-10.92,33.15-15.55,43.24-14.4
		c10.09,1.15,30.28,6.42,53.15,22.38c13.18,9.2,25.25,18.09,34.47,26.88c12.6,12.01,34.46,44.93,11.9,60.45
		c-13.55,9.33-18.35-2.21-22.15-4.26c-3.81-2.05-3.72-3.65-10.52-1.97c-6.8,1.68-15.83,2.74-21.18,1.48
		c-5.35-1.26-7.96,4.18-15.53,9.91c-4.01,3.03-7.77,1.66-11.04-1.06c-9.43-7.85-7.11-13.33-24.52-14.83
		c-8.27-0.71-16.1,2.38-17.32,12.02c-1.16,9.19,1.77,15.49-7.01,21.45c-8.79,5.95-15.46,2.25-18.2-1.91
		c-2.74-4.16-0.64-8.5,2.72-17.56c3.36-9.06-0.45-13.15-7.67-13.93c-7.21-0.78-19.95-1.64-31.55,2.05
		c-11.59,3.69-14.08,9.04-22.21,6.87c-8.13-2.17-11.25-7.43-17.55-6.82c-6.3,0.61-15.4,6.55-26.42,4.97c0,0-10.2-1.18-16.03-0.7
		c-6.57,0.54-3.79,10.65-9.4,19.99c-1.45,2.41-4.3,4.53-6.1,5.47C-34.28-33.25-39.51-77.34-13.93-92.09L-13.93-92.09z M185.96-68.97
		c2.93,4.71,5,7.76,11.07,0.63c6.07-7.13,9.37-6.4,15.86-6.25c6.49,0.15,12.52,1.26,20.82-1.54c8.31-2.8,13.28-0.96,17.23,3.53
		c3.95,4.49,9.81,9.08,16.69-2.51c4.77-8.04,1.07-22.9-9.75-37.07c-4.78-6.27-12.22-12.49-18.79-17.78
		c-21.44-17.26-41.02-29.25-58.79-34.52c-17.76-5.27-18.44-5.5-38.08,3.5c-19.65,9-84.95,38.07-105.88,49.06
		C15.41-100.92,2.37-94.72-9.91-87.72c-8.34,4.75-15.53,16.67-15.81,23.5c-0.38,9.18,1.23,17.14,5.71,16.95
		c2.92-0.12,8.76-5.29,9.14-14.59c0.39-9.76,7.39-12.52,14.46-12.56c15.99-0.09,10.31,4.13,27.65-1.71
		c22.05-7.42,24.96,9.39,36.02,3.66c5.3-2.74,7.17-3.58,11.4-4.87c3.26-1,7.96-2.66,16.67-3.32c20.01-1.51,27.41,1.04,31.39,7.95
		c3.98,6.92-2.51,17.29-3.3,22.98c-0.79,5.68,5.34,8.34,11.63,3.12c6.29-5.22-0.15-11.43,3.33-22.16
		C144.81-88.58,178.18-81.49,185.96-68.97L185.96-68.97z"/>
	<path class="st0" d="M182.49-157.57c11.25,3.87,29.27,15.17,22.94,16.76c-6.33,1.58-11.77-5.7-23.03-10.4
		C171.14-155.92,177.27-160.35,182.49-157.57L182.49-157.57z"/>
	<path class="st0" d="M169.33-156.92c3.96,1.3,4.67-1.36,3.63-3.52c-0.66-1.37-3.51-2.35-5.03-1.99
		C165.76-161.92,165.38-158.22,169.33-156.92L169.33-156.92z"/>
	<path class="st7" d="M-159.55,316.08c2.19,0,4.3,0.26,6.34,0.78c2.04,0.52,3.87,1.4,5.49,2.64c0.81,0.67,1.21,1.38,1.21,2.14
		c0,0.57-0.23,1.06-0.68,1.46c-0.45,0.4-0.96,0.61-1.53,0.61c-0.48,0-0.97-0.19-1.5-0.57c-1.24-1-2.67-1.69-4.31-2.07
		c-1.64-0.38-3.31-0.57-5.02-0.57c-2.47,0-4.8,0.48-6.98,1.43c-2.19,0.95-4.09,2.23-5.7,3.85c-1.62,1.62-2.89,3.5-3.81,5.67
		c-0.93,2.16-1.39,4.48-1.39,6.95c0,2.47,0.46,4.8,1.39,6.98c0.93,2.19,2.2,4.09,3.81,5.7c1.62,1.62,3.52,2.89,5.7,3.81
		c2.19,0.93,4.51,1.39,6.98,1.39c1.95,0,3.8-0.29,5.56-0.86c1.76-0.57,3.37-1.4,4.85-2.49c0.47-0.24,0.85-0.36,1.14-0.36
		c0.62,0,1.14,0.23,1.57,0.68c0.43,0.45,0.64,0.99,0.64,1.6s-0.26,1.16-0.78,1.64c-1.81,1.33-3.81,2.36-6.02,3.1
		c-2.21,0.74-4.52,1.1-6.95,1.1c-3.09,0-5.99-0.58-8.69-1.75c-2.71-1.16-5.07-2.76-7.09-4.77c-2.02-2.02-3.61-4.38-4.77-7.09
		c-1.16-2.71-1.75-5.61-1.75-8.69c0-3.09,0.58-5.99,1.75-8.69c1.16-2.71,2.76-5.07,4.77-7.09c2.02-2.02,4.38-3.61,7.09-4.77
		C-165.53,316.66-162.64,316.08-159.55,316.08L-159.55,316.08z M-114.84,323.63l-8.69,22.16h17.46L-114.84,323.63L-114.84,323.63z
		 M-125.24,350l-3.71,9.33c-0.38,0.9-1.05,1.35-2,1.35c-0.19,0-0.43-0.05-0.71-0.14c-0.9-0.38-1.35-1.05-1.35-2
		c0-0.14,0.01-0.27,0.04-0.39c0.02-0.12,0.06-0.25,0.11-0.39l15.96-40.33c0.19-0.38,0.46-0.7,0.82-0.96
		c0.36-0.26,0.72-0.39,1.1-0.39h0.14h0.14c0.95,0,1.59,0.45,1.92,1.35l15.96,40.33c0.09,0.38,0.14,0.66,0.14,0.85
		c0,0.9-0.43,1.54-1.28,1.92c-0.14,0.05-0.27,0.08-0.39,0.11c-0.12,0.02-0.25,0.04-0.39,0.04c-0.95,0-1.62-0.45-1.99-1.35
		l-3.71-9.33H-125.24L-125.24,350z M-55.37,357.69c0.09,0.19,0.14,0.48,0.14,0.86c0,0.9-0.4,1.54-1.21,1.92
		c-0.29,0.14-0.57,0.21-0.86,0.21c-0.9,0-1.54-0.4-1.92-1.21l-11.04-23.44l-4.2,4.77v17.74c0,0.62-0.2,1.13-0.61,1.53
		c-0.4,0.4-0.91,0.61-1.53,0.61c-0.57,0-1.06-0.2-1.46-0.61c-0.4-0.4-0.61-0.91-0.61-1.53v-40.33c0-0.62,0.2-1.13,0.61-1.53
		c0.4-0.4,0.89-0.61,1.46-0.61c0.62,0,1.13,0.2,1.53,0.61c0.4,0.4,0.61,0.91,0.61,1.53v16.18l15.53-17.6c0.48-0.48,1-0.71,1.57-0.71
		c0.48,0,0.95,0.19,1.42,0.57c0.24,0.19,0.42,0.43,0.53,0.71c0.12,0.28,0.18,0.57,0.18,0.85c0,0.57-0.17,1.02-0.5,1.35l-11.47,12.97
		L-55.37,357.69L-55.37,357.69z M-32.11,356.48h15.04c0.67,0,1.22,0.2,1.67,0.61c0.45,0.4,0.68,0.89,0.68,1.46
		c0,0.62-0.23,1.13-0.68,1.53c-0.45,0.4-1.01,0.61-1.67,0.61h-16.67c-0.67,0-1.26-0.18-1.78-0.53c-0.52-0.36-0.78-0.91-0.78-1.67
		v-40.26c0-0.81,0.26-1.37,0.78-1.67c0.52-0.31,1.12-0.46,1.78-0.46h16.67c0.67,0,1.22,0.2,1.67,0.61c0.45,0.4,0.68,0.91,0.68,1.53
		c0,0.57-0.23,1.06-0.68,1.46c-0.45,0.4-1.01,0.61-1.67,0.61h-15.04v16.03h12.61c0.66,0,1.22,0.2,1.67,0.61
		c0.45,0.4,0.68,0.91,0.68,1.53c0,0.57-0.23,1.06-0.68,1.46c-0.45,0.4-1.01,0.61-1.67,0.61h-12.61V356.48L-32.11,356.48z
		 M19.8,326.77c-0.14-1.81-0.7-3.35-1.67-4.63c-0.97-1.28-2.46-1.92-4.45-1.92c-1.76,0-3.15,0.59-4.17,1.78
		c-1.02,1.19-1.53,2.54-1.53,4.06c0,1.47,0.45,2.8,1.35,3.99c0.76,1,1.66,1.97,2.71,2.92c1.05,0.95,2.14,1.9,3.28,2.85l0.29,0.21
		c1.33,1.14,2.62,2.32,3.9,3.53c1.27,1.21,2.32,2.55,3.14,4.03c1.15,1.99,1.73,4.11,1.73,6.34c0,1.47-0.27,2.9-0.82,4.28
		c-0.55,1.38-1.38,2.61-2.47,3.71c-1,1-2.1,1.72-3.29,2.17c-1.2,0.45-2.41,0.68-3.66,0.68c-1.28,0-2.57-0.24-3.82-0.71
		c-1.26-0.48-2.4-1.15-3.4-2.03c-1-0.88-1.84-1.92-2.53-3.14c-0.69-1.21-1.1-2.55-1.25-4.03l-0.07-1.35c0-0.57,0.2-1.07,0.61-1.5
		c0.4-0.43,0.91-0.64,1.53-0.64c0.24,0,0.45,0.05,0.64,0.14c0.19,0.09,0.38,0.19,0.57,0.28c0.57,0.43,0.86,1,0.86,1.71
		c0.05,1.14,0.29,2.14,0.71,2.99c0.43,0.86,0.95,1.59,1.57,2.21c0.62,0.62,1.32,1.08,2.1,1.39c0.78,0.31,1.58,0.46,2.39,0.46
		c1.09,0,2.1-0.28,3.03-0.85c0.93-0.57,1.67-1.45,2.24-2.64c0.57-1.14,0.85-2.26,0.85-3.35c0-1-0.2-1.95-0.61-2.85
		c-0.4-0.9-0.95-1.78-1.64-2.64c-0.69-0.86-1.48-1.7-2.39-2.53c-0.9-0.83-1.83-1.65-2.78-2.46l-0.5-0.5c-1-0.86-1.96-1.71-2.89-2.57
		c-0.93-0.86-1.78-1.73-2.57-2.64c-0.78-0.9-1.43-1.84-1.92-2.81c-0.5-0.97-0.82-1.98-0.96-3.03c-0.05-0.24-0.07-0.5-0.07-0.78
		c0-0.29,0-0.55,0-0.78c0-1.52,0.27-2.91,0.82-4.17c0.55-1.26,1.28-2.34,2.21-3.24c0.93-0.9,1.98-1.6,3.17-2.1
		c1.19-0.5,2.42-0.75,3.71-0.75c2.19,0,4.23,0.74,6.13,2.21c1.54,1.14,2.6,2.42,3.15,3.85c0.56,1.43,0.94,3.04,1.13,4.85
		c0,0.57-0.21,1.06-0.65,1.46c-0.43,0.4-0.94,0.61-1.52,0.61c-0.49,0-0.89-0.12-1.24-0.36C20.11,328.1,19.8,327.53,19.8,326.77
		L19.8,326.77z M85.23,360.4l-5.91-7.48c-1.33,1.52-2.74,2.99-4.24,4.42c-1.5,1.43-3.15,2.47-4.95,3.14
		c-1.47,0.52-2.87,0.78-4.2,0.78c-1.28,0-2.53-0.21-3.74-0.64c-1.21-0.43-2.32-1.02-3.31-1.78c-1-0.76-1.83-1.69-2.49-2.78
		c-0.66-1.09-1.12-2.33-1.35-3.71c-0.14-0.71-0.21-1.4-0.21-2.07c0-1.57,0.3-3.02,0.89-4.35c0.59-1.33,1.35-2.6,2.28-3.81
		c0.93-1.21,1.96-2.34,3.1-3.38c1.14-1.05,2.28-2.07,3.42-3.06c0.09-0.09,0.2-0.19,0.32-0.28c0.12-0.1,0.23-0.19,0.32-0.29
		l-2.42-3.06c-1-1.33-1.84-2.68-2.53-4.06c-0.69-1.38-1.03-2.78-1.03-4.2c0-0.95,0.18-1.89,0.53-2.81c0.36-0.93,0.94-1.86,1.75-2.81
		c1.05-1.24,2.23-2.15,3.56-2.74c1.33-0.59,2.68-0.89,4.06-0.89c1.24,0,2.43,0.21,3.6,0.64c1.16,0.43,2.19,1.05,3.06,1.85
		c0.88,0.81,1.59,1.78,2.14,2.92c0.55,1.14,0.82,2.42,0.82,3.85c0,0.95-0.14,1.95-0.43,2.99c-0.48,1.76-1.38,3.31-2.71,4.67
		c-1.33,1.35-2.68,2.6-4.06,3.74c-0.09,0.1-0.18,0.17-0.25,0.21c-0.07,0.05-0.15,0.12-0.25,0.21l8.55,10.83l5.91-6.27
		c0.48-0.48,0.97-0.71,1.5-0.71c0.57,0,1.05,0.21,1.43,0.64c0.48,0.48,0.71,1,0.71,1.57c0,0.48-0.19,0.95-0.57,1.43l-6.34,6.7
		l6.41,7.98c0.29,0.43,0.43,0.85,0.43,1.28c0,0.66-0.26,1.21-0.78,1.64c-0.38,0.33-0.83,0.5-1.35,0.5
		C86.2,361.18,85.66,360.92,85.23,360.4L85.23,360.4z M76.68,349.64l-8.91-11.26c-0.85,0.71-1.79,1.52-2.81,2.42
		c-1.02,0.9-1.97,1.88-2.85,2.92c-0.88,1.05-1.62,2.13-2.21,3.24c-0.59,1.12-0.89,2.27-0.89,3.46c0,0.9,0.21,1.81,0.64,2.71
		c0.62,1.33,1.48,2.32,2.6,2.96c1.12,0.64,2.29,0.96,3.53,0.96c1.47,0,2.9-0.4,4.28-1.21c0.48-0.28,1-0.65,1.57-1.1
		c0.57-0.45,1.14-0.96,1.71-1.53c0.57-0.57,1.14-1.16,1.71-1.78C75.61,350.8,76.16,350.21,76.68,349.64L76.68,349.64z M68.34,332.4
		c0.57-0.43,1.16-0.91,1.78-1.46c0.62-0.55,1.2-1.1,1.75-1.67c0.55-0.57,1.03-1.16,1.46-1.78c0.43-0.62,0.71-1.23,0.86-1.85
		c0.1-0.33,0.17-0.65,0.21-0.96c0.05-0.31,0.07-0.61,0.07-0.89c0-1.62-0.53-2.86-1.6-3.74c-1.07-0.88-2.29-1.32-3.67-1.32
		c-0.66,0-1.32,0.11-1.96,0.32c-0.64,0.21-1.25,0.56-1.82,1.03c-1.33,1.05-2,2.26-2,3.63c0,0.95,0.27,1.91,0.82,2.89
		c0.55,0.97,1.15,1.91,1.82,2.81L68.34,332.4L68.34,332.4z M126.22,320.57v35.7h1c2.47,0,4.79-0.46,6.95-1.39
		c2.16-0.93,4.06-2.2,5.7-3.81c1.64-1.62,2.93-3.5,3.88-5.67c0.95-2.16,1.43-4.5,1.43-7.02c0-2.47-0.48-4.79-1.43-6.95
		c-0.95-2.16-2.23-4.05-3.85-5.67c-1.62-1.62-3.5-2.9-5.66-3.85c-2.16-0.95-4.48-1.43-6.95-1.43
		C126.81,320.5,126.46,320.52,126.22,320.57L126.22,320.57z M122.02,358.48v-40.26c0-0.52,0.14-0.93,0.43-1.21
		c0.28-0.29,0.65-0.5,1.1-0.64c0.45-0.14,0.94-0.23,1.46-0.25c0.52-0.02,1.02-0.04,1.5-0.04h0.78c3.09,0,5.99,0.58,8.69,1.75
		c2.71,1.16,5.07,2.76,7.09,4.77c2.02,2.02,3.61,4.38,4.77,7.09c1.16,2.71,1.75,5.61,1.75,8.69c0,3.09-0.58,5.99-1.75,8.69
		c-1.16,2.71-2.76,5.07-4.77,7.09c-2.02,2.02-4.38,3.61-7.09,4.77c-2.71,1.16-5.61,1.75-8.69,1.75H127c-0.43,0-0.94-0.01-1.53-0.04
		c-0.59-0.02-1.14-0.11-1.64-0.25c-0.5-0.14-0.93-0.37-1.28-0.68C122.19,359.41,122.02,359,122.02,358.48L122.02,358.48z
		 M173.71,356.48h15.04c0.66,0,1.22,0.2,1.67,0.61c0.45,0.4,0.68,0.89,0.68,1.46c0,0.62-0.23,1.13-0.68,1.53
		c-0.45,0.4-1.01,0.61-1.67,0.61h-16.67c-0.67,0-1.26-0.18-1.78-0.53c-0.52-0.36-0.78-0.91-0.78-1.67v-40.26
		c0-0.81,0.26-1.37,0.78-1.67c0.52-0.31,1.12-0.46,1.78-0.46h16.67c0.66,0,1.22,0.2,1.67,0.61c0.45,0.4,0.68,0.91,0.68,1.53
		c0,0.57-0.23,1.06-0.68,1.46c-0.45,0.4-1.01,0.61-1.67,0.61h-15.04v16.03h12.61c0.67,0,1.22,0.2,1.67,0.61
		c0.45,0.4,0.68,0.91,0.68,1.53c0,0.57-0.23,1.06-0.68,1.46c-0.45,0.4-1.01,0.61-1.67,0.61h-12.61V356.48L173.71,356.48z
		 M225.62,326.77c-0.14-1.81-0.7-3.35-1.67-4.63c-0.97-1.28-2.46-1.92-4.45-1.92c-1.76,0-3.15,0.59-4.17,1.78
		c-1.02,1.19-1.53,2.54-1.53,4.06c0,1.47,0.45,2.8,1.35,3.99c0.76,1,1.66,1.97,2.71,2.92c1.05,0.95,2.14,1.9,3.28,2.85l0.29,0.21
		c1.33,1.14,2.62,2.32,3.9,3.53c1.27,1.21,2.32,2.55,3.14,4.03c1.15,1.99,1.73,4.11,1.73,6.34c0,1.47-0.27,2.9-0.82,4.28
		c-0.55,1.38-1.38,2.61-2.47,3.71c-1,1-2.1,1.72-3.29,2.17c-1.2,0.45-2.41,0.68-3.66,0.68c-1.28,0-2.57-0.24-3.82-0.71
		c-1.26-0.48-2.4-1.15-3.4-2.03c-1-0.88-1.84-1.92-2.53-3.14c-0.69-1.21-1.1-2.55-1.25-4.03l-0.07-1.35c0-0.57,0.2-1.07,0.61-1.5
		c0.4-0.43,0.91-0.64,1.53-0.64c0.24,0,0.45,0.05,0.64,0.14c0.19,0.09,0.38,0.19,0.57,0.28c0.57,0.43,0.86,1,0.86,1.71
		c0.05,1.14,0.29,2.14,0.71,2.99c0.43,0.86,0.95,1.59,1.57,2.21c0.62,0.62,1.32,1.08,2.1,1.39c0.78,0.31,1.58,0.46,2.39,0.46
		c1.09,0,2.1-0.28,3.03-0.85s1.67-1.45,2.24-2.64c0.57-1.14,0.85-2.26,0.85-3.35c0-1-0.2-1.95-0.61-2.85
		c-0.4-0.9-0.95-1.78-1.64-2.64c-0.69-0.86-1.48-1.7-2.39-2.53c-0.9-0.83-1.83-1.65-2.78-2.46l-0.5-0.5c-1-0.86-1.96-1.71-2.89-2.57
		c-0.93-0.86-1.78-1.73-2.57-2.64c-0.78-0.9-1.43-1.84-1.92-2.81c-0.5-0.97-0.82-1.98-0.96-3.03c-0.05-0.24-0.07-0.5-0.07-0.78
		c0-0.29,0-0.55,0-0.78c0-1.52,0.27-2.91,0.82-4.17c0.55-1.26,1.28-2.34,2.21-3.24c0.93-0.9,1.98-1.6,3.17-2.1
		c1.19-0.5,2.42-0.75,3.71-0.75c2.19,0,4.23,0.74,6.13,2.21c1.54,1.14,2.6,2.42,3.15,3.85c0.56,1.43,0.94,3.04,1.13,4.85
		c0,0.57-0.21,1.06-0.65,1.46c-0.43,0.4-0.94,0.61-1.52,0.61c-0.49,0-0.89-0.12-1.24-0.36C225.93,328.1,225.62,327.53,225.62,326.77
		L225.62,326.77z M265.63,326.77c-0.14-1.81-0.7-3.35-1.67-4.63c-0.97-1.28-2.46-1.92-4.45-1.92c-1.76,0-3.15,0.59-4.17,1.78
		c-1.02,1.19-1.53,2.54-1.53,4.06c0,1.47,0.45,2.8,1.35,3.99c0.76,1,1.66,1.97,2.71,2.92c1.05,0.95,2.14,1.9,3.28,2.85l0.29,0.21
		c1.33,1.14,2.62,2.32,3.9,3.53c1.27,1.21,2.32,2.55,3.14,4.03c1.15,1.99,1.73,4.11,1.73,6.34c0,1.47-0.27,2.9-0.82,4.28
		c-0.55,1.38-1.38,2.61-2.47,3.71c-1,1-2.1,1.72-3.29,2.17c-1.2,0.45-2.41,0.68-3.66,0.68c-1.28,0-2.57-0.24-3.82-0.71
		c-1.26-0.48-2.4-1.15-3.4-2.03c-1-0.88-1.84-1.92-2.53-3.14c-0.69-1.21-1.1-2.55-1.25-4.03l-0.07-1.35c0-0.57,0.2-1.07,0.61-1.5
		c0.4-0.43,0.91-0.64,1.53-0.64c0.24,0,0.45,0.05,0.64,0.14c0.19,0.09,0.38,0.19,0.57,0.28c0.57,0.43,0.86,1,0.86,1.71
		c0.05,1.14,0.29,2.14,0.71,2.99c0.43,0.86,0.95,1.59,1.57,2.21c0.62,0.62,1.32,1.08,2.1,1.39c0.78,0.31,1.58,0.46,2.39,0.46
		c1.09,0,2.1-0.28,3.03-0.85c0.93-0.57,1.67-1.45,2.24-2.64c0.57-1.14,0.85-2.26,0.85-3.35c0-1-0.2-1.95-0.61-2.85
		c-0.4-0.9-0.95-1.78-1.64-2.64c-0.69-0.86-1.48-1.7-2.39-2.53c-0.9-0.83-1.83-1.65-2.78-2.46l-0.5-0.5c-1-0.86-1.96-1.71-2.89-2.57
		c-0.93-0.86-1.78-1.73-2.57-2.64c-0.78-0.9-1.43-1.84-1.92-2.81c-0.5-0.97-0.82-1.98-0.96-3.03c-0.05-0.24-0.07-0.5-0.07-0.78
		c0-0.29,0-0.55,0-0.78c0-1.52,0.27-2.91,0.82-4.17c0.55-1.26,1.28-2.34,2.21-3.24c0.93-0.9,1.98-1.6,3.17-2.1
		c1.19-0.5,2.42-0.75,3.71-0.75c2.19,0,4.23,0.74,6.13,2.21c1.54,1.14,2.6,2.42,3.15,3.85c0.56,1.43,0.94,3.04,1.13,4.85
		c0,0.57-0.21,1.06-0.65,1.46c-0.43,0.4-0.94,0.61-1.52,0.61c-0.49,0-0.89-0.12-1.24-0.36C265.94,328.1,265.63,327.53,265.63,326.77
		L265.63,326.77z M293.81,356.48h15.04c0.67,0,1.22,0.2,1.67,0.61c0.45,0.4,0.68,0.89,0.68,1.46c0,0.62-0.23,1.13-0.68,1.53
		c-0.45,0.4-1.01,0.61-1.67,0.61h-16.67c-0.67,0-1.26-0.18-1.78-0.53c-0.52-0.36-0.78-0.91-0.78-1.67v-40.26
		c0-0.81,0.26-1.37,0.78-1.67c0.52-0.31,1.12-0.46,1.78-0.46h16.67c0.67,0,1.22,0.2,1.67,0.61c0.45,0.4,0.68,0.91,0.68,1.53
		c0,0.57-0.23,1.06-0.68,1.46c-0.45,0.4-1.01,0.61-1.67,0.61h-15.04v16.03h12.61c0.67,0,1.22,0.2,1.67,0.61
		c0.45,0.4,0.68,0.91,0.68,1.53c0,0.57-0.23,1.06-0.68,1.46c-0.45,0.4-1.01,0.61-1.67,0.61h-12.61V356.48L293.81,356.48z
		 M349.92,357.69c0.14,0.29,0.21,0.57,0.21,0.86c0,0.9-0.4,1.54-1.21,1.92c-0.29,0.14-0.59,0.21-0.93,0.21
		c-0.9,0-1.54-0.4-1.92-1.21l-8.05-17.03c-0.95,0.19-2,0.29-3.14,0.29h-1v15.82c0,0.62-0.2,1.13-0.61,1.53
		c-0.4,0.4-0.91,0.61-1.53,0.61c-0.57,0-1.06-0.2-1.46-0.61c-0.4-0.4-0.61-0.91-0.61-1.53V318.5c0-0.57,0.11-1.01,0.32-1.32
		c0.21-0.31,0.47-0.55,0.78-0.71c0.31-0.17,0.66-0.27,1.07-0.32c0.4-0.05,0.82-0.07,1.25-0.07h1.21c0.81,0,1.64,0.04,2.49,0.11
		c0.85,0.07,1.71,0.23,2.57,0.46c1.62,0.43,3.06,1.07,4.35,1.92c1.28,0.86,2.38,1.84,3.28,2.96c0.9,1.12,1.59,2.35,2.07,3.71
		c0.48,1.35,0.71,2.74,0.71,4.17c0,1.38-0.23,2.74-0.68,4.1c-0.45,1.35-1.18,2.65-2.17,3.88c-0.71,0.9-1.47,1.66-2.28,2.28
		c-0.81,0.62-1.66,1.14-2.57,1.57L349.92,357.69L349.92,357.69z M333.89,320.28v18.24h0.36c2.09,0,4.09-0.38,5.99-1.14
		c1.9-0.76,3.37-2.19,4.42-4.28c0.62-1.28,0.93-2.57,0.93-3.85c0-1.09-0.21-2.13-0.64-3.1c-0.43-0.97-1.03-1.85-1.82-2.64
		c-0.78-0.78-1.7-1.44-2.74-1.96c-1.05-0.52-2.19-0.88-3.42-1.07c-0.52-0.09-1.03-0.15-1.53-0.18
		C334.92,320.29,334.41,320.28,333.89,320.28L333.89,320.28z M386.49,320.28h-6.6v38.27c0,0.62-0.2,1.13-0.61,1.53
		c-0.4,0.4-0.91,0.61-1.53,0.61c-0.57,0-1.06-0.2-1.46-0.61c-0.4-0.4-0.61-0.91-0.61-1.53l0.07-38.27h-6.6
		c-0.68,0-1.23-0.2-1.7-0.61c-0.45-0.4-0.68-0.89-0.68-1.46c0-0.62,0.23-1.13,0.68-1.53c0.45-0.4,1.01-0.61,1.69-0.61h17.36
		c0.68,0,1.24,0.2,1.69,0.61c0.45,0.4,0.68,0.91,0.68,1.53c0,0.57-0.23,1.06-0.68,1.46C387.72,320.08,387.16,320.28,386.49,320.28
		L386.49,320.28z M421.68,326.77c-0.14-1.81-0.7-3.35-1.67-4.63c-0.97-1.28-2.46-1.92-4.45-1.92c-1.76,0-3.15,0.59-4.17,1.78
		c-1.02,1.19-1.53,2.54-1.53,4.06c0,1.47,0.45,2.8,1.35,3.99c0.76,1,1.66,1.97,2.71,2.92c1.05,0.95,2.14,1.9,3.28,2.85l0.29,0.21
		c1.33,1.14,2.62,2.32,3.9,3.53c1.27,1.21,2.32,2.55,3.14,4.03c1.15,1.99,1.73,4.11,1.73,6.34c0,1.47-0.27,2.9-0.82,4.28
		c-0.55,1.38-1.38,2.61-2.47,3.71c-1,1-2.1,1.72-3.29,2.17c-1.2,0.45-2.41,0.68-3.66,0.68c-1.28,0-2.57-0.24-3.82-0.71
		c-1.26-0.48-2.4-1.15-3.4-2.03c-1-0.88-1.84-1.92-2.53-3.14c-0.69-1.21-1.1-2.55-1.25-4.03l-0.07-1.35c0-0.57,0.2-1.07,0.61-1.5
		c0.4-0.43,0.91-0.64,1.53-0.64c0.24,0,0.45,0.05,0.64,0.14c0.19,0.09,0.38,0.19,0.57,0.28c0.57,0.43,0.86,1,0.86,1.71
		c0.05,1.14,0.29,2.14,0.71,2.99c0.43,0.86,0.95,1.59,1.57,2.21c0.62,0.62,1.32,1.08,2.1,1.39c0.78,0.31,1.58,0.46,2.39,0.46
		c1.09,0,2.1-0.28,3.03-0.85c0.93-0.57,1.67-1.45,2.24-2.64c0.57-1.14,0.85-2.26,0.85-3.35c0-1-0.2-1.95-0.61-2.85
		c-0.4-0.9-0.95-1.78-1.64-2.64c-0.69-0.86-1.48-1.7-2.39-2.53c-0.9-0.83-1.83-1.65-2.78-2.46l-0.5-0.5c-1-0.86-1.96-1.71-2.89-2.57
		c-0.93-0.86-1.78-1.73-2.57-2.64c-0.78-0.9-1.43-1.84-1.92-2.81c-0.5-0.97-0.82-1.98-0.96-3.03c-0.05-0.24-0.07-0.5-0.07-0.78
		c0-0.29,0-0.55,0-0.78c0-1.52,0.27-2.91,0.82-4.17c0.55-1.26,1.28-2.34,2.21-3.24c0.93-0.9,1.98-1.6,3.17-2.1
		c1.19-0.5,2.42-0.75,3.71-0.75c2.19,0,4.23,0.74,6.13,2.21c1.54,1.14,2.6,2.42,3.15,3.85c0.56,1.43,0.94,3.04,1.13,4.85
		c0,0.57-0.21,1.06-0.65,1.46c-0.43,0.4-0.94,0.61-1.52,0.61c-0.49,0-0.89-0.12-1.24-0.36C421.98,328.1,421.68,327.53,421.68,326.77
		L421.68,326.77z"/>
</g>
</svg>
